{
DisplayStrings = (
"ABCDEFGHIJKL\012MNOPQRSTUVWXYZ\012abcdefghijkl\012mnopqrstuvwxyz"
);
copyright = "Copyright \U00A9 2015 by James Puckett. All rights reserved.";
customParameters = (
{
name = openTypeHheaAscender;
value = "735";
},
{
name = openTypeOS2WinAscent;
value = "735";
},
{
name = openTypeHheaDescender;
value = "0";
},
{
name = openTypeOS2WinDescent;
value = "0";
},
{
name = openTypeHheaLineGap;
value = "0";
},
{
name = openTypeOS2Ascender;
value = "735";
},
{
name = openTypeOS2Descender;
value = "735";
},
{
name = openTypeOS2LineGap;
value = "0";
},
{
name = vendorID;
value = dtf;
},
{
name = licenseURL;
value = "http://dunwichtype.com/eula/";
},
{
name = sampleText;
value = "In his house at R'lyeh, dead Cthulhu waits dreaming.";
}
);
date = "2015-05-07 01:03:33 +0000";
designer = "James Puckett";
designerURL = "http://www.dunwichtype.com";
familyName = "Uniblok";
fontMaster = (
{
ascender = 700;
capHeight = 700;
descender = 0;
id = UUID0;
xHeight = 700;
}
);
glyphs = (
{
glyphname = A;
lastChange = "2015-05-07 01:03:33 +0000";
layers = (
{
layerId = UUID0;
name = Regular;
paths = (
{
closed = 1;
nodes = (
"17 0 LINE",
"227 0 LINE",
"227 209 LINE",
"262 209 LINE",
"262 0 LINE",
"717 0 LINE",
"717 700 LINE",
"17 700 LINE"
);
},
{
closed = 1;
nodes = (
"227 280 LINE",
"227 560 LINE",
"262 560 LINE",
"262 280 LINE"
);
}
);
width = 735;
}
);
unicode = 0041;
},
{
glyphname = AE;
lastChange = "2015-05-07 01:03:33 +0000";
layers = (
{
layerId = UUID0;
name = Regular;
paths = (
{
closed = 1;
nodes = (
"227 280 LINE",
"227 560 LINE",
"262 560 LINE",
"262 280 LINE"
);
},
{
closed = 1;
nodes = (
"717 0 LINE",
"717 210 LINE",
"507 210 LINE",
"507 245 LINE",
"717 245 LINE",
"717 455 LINE",
"507 455 LINE",
"507 490 LINE",
"717 490 LINE",
"717 700 LINE",
"17 700 LINE",
"17 0 LINE",
"227 0 LINE",
"227 209 LINE",
"262 209 LINE",
"262 0 LINE"
);
}
);
width = 735;
}
);
unicode = 00C6;
},
{
glyphname = B;
lastChange = "2015-05-07 01:03:33 +0000";
layers = (
{
layerId = UUID0;
name = Regular;
paths = (
{
closed = 1;
nodes = (
"17 0 LINE",
"717 0 LINE",
"717 350 LINE",
"647 350 LINE",
"647 385 LINE",
"717 385 LINE",
"717 700 LINE",
"17 700 LINE"
);
},
{
closed = 1;
nodes = (
"227 385 LINE",
"227 560 LINE",
"262 560 LINE",
"262 385 LINE"
);
},
{
closed = 1;
nodes = (
"227 140 LINE",
"227 315 LINE",
"262 315 LINE",
"262 140 LINE"
);
}
);
width = 735;
}
);
unicode = 0042;
},
{
glyphname = C;
lastChange = "2015-05-07 01:03:33 +0000";
layers = (
{
layerId = UUID0;
name = Regular;
paths = (
{
closed = 1;
nodes = (
"507 245 LINE",
"717 245 LINE",
"717 455 LINE",
"507 455 LINE"
);
},
{
closed = 1;
nodes = (
"472 490 LINE",
"717 490 LINE",
"717 700 LINE",
"17 700 LINE",
"17 0 LINE",
"717 0 LINE",
"717 210 LINE",
"472 210 LINE"
);
}
);
width = 735;
}
);
unicode = 0043;
},
{
glyphname = D;
lastChange = "2015-05-07 01:03:33 +0000";
layers = (
{
layerId = UUID0;
name = Regular;
paths = (
{
closed = 1;
nodes = (
"17 0 LINE",
"682 0 LINE",
"682 140 LINE",
"717 140 LINE",
"717 560 LINE",
"682 560 LINE",
"682 700 LINE",
"17 700 LINE"
);
},
{
closed = 1;
nodes = (
"227 140 LINE",
"227 560 LINE",
"262 560 LINE",
"262 140 LINE"
);
}
);
width = 735;
}
);
unicode = 0044;
},
{
glyphname = Eth;
lastChange = "2015-05-07 01:03:33 +0000";
layers = (
{
layerId = UUID0;
name = Regular;
paths = (
{
closed = 1;
nodes = (
"17 315 LINE",
"52 315 LINE",
"52 0 LINE",
"682 0 LINE",
"682 140 LINE",
"717 140 LINE",
"717 560 LINE",
"682 560 LINE",
"682 700 LINE",
"52 700 LINE",
"52 385 LINE",
"17 385 LINE"
);
},
{
closed = 1;
nodes = (
"227 140 LINE",
"227 560 LINE",
"262 560 LINE",
"262 140 LINE"
);
}
);
width = 735;
}
);
unicode = 00D0;
},
{
glyphname = E;
lastChange = "2015-05-07 01:03:33 +0000";
layers = (
{
layerId = UUID0;
name = Regular;
paths = (
{
closed = 1;
nodes = (
"17 0 LINE",
"717 0 LINE",
"717 210 LINE",
"507 210 LINE",
"507 245 LINE",
"717 245 LINE",
"717 455 LINE",
"507 455 LINE",
"507 490 LINE",
"717 490 LINE",
"717 700 LINE",
"17 700 LINE"
);
}
);
width = 735;
}
);
unicode = 0045;
},
{
glyphname = F;
lastChange = "2015-05-07 01:03:33 +0000";
layers = (
{
layerId = UUID0;
name = Regular;
paths = (
{
closed = 1;
nodes = (
"17 0 LINE",
"507 0 LINE",
"507 245 LINE",
"717 245 LINE",
"717 455 LINE",
"507 455 LINE",
"507 490 LINE",
"717 490 LINE",
"717 700 LINE",
"17 700 LINE"
);
},
{
closed = 1;
nodes = (
"542 0 LINE",
"717 0 LINE",
"717 210 LINE",
"542 210 LINE"
);
}
);
width = 735;
}
);
unicode = 0046;
},
{
glyphname = G;
lastChange = "2015-05-07 01:03:33 +0000";
layers = (
{
layerId = UUID0;
name = Regular;
paths = (
{
closed = 1;
nodes = (
"17 0 LINE",
"717 0 LINE",
"717 455 LINE",
"507 455 LINE",
"507 245 LINE",
"577 245 LINE",
"577 210 LINE",
"472 210 LINE",
"472 490 LINE",
"717 490 LINE",
"717 700 LINE",
"17 700 LINE"
);
}
);
width = 735;
}
);
unicode = 0047;
},
{
glyphname = H;
lastChange = "2015-05-07 01:03:33 +0000";
layers = (
{
layerId = UUID0;
name = Regular;
paths = (
{
closed = 1;
nodes = (
"17 0 LINE",
"227 0 LINE",
"227 210 LINE",
"262 210 LINE",
"262 0 LINE",
"717 0 LINE",
"717 700 LINE",
"262 700 LINE",
"262 490 LINE",
"227 490 LINE",
"227 700 LINE",
"17 700 LINE"
);
}
);
width = 735;
}
);
unicode = 0048;
},
{
glyphname = I;
lastChange = "2015-05-07 01:03:33 +0000";
layers = (
{
layerId = UUID0;
name = Regular;
paths = (
{
closed = 1;
nodes = (
"17 0 LINE",
"717 0 LINE",
"717 210 LINE",
"542 210 LINE",
"542 490 LINE",
"717 490 LINE",
"717 700 LINE",
"17 700 LINE",
"17 490 LINE",
"192 490 LINE",
"192 210 LINE",
"17 210 LINE"
);
},
{
closed = 1;
nodes = (
"577 245 LINE",
"717 245 LINE",
"717 455 LINE",
"577 455 LINE"
);
},
{
closed = 1;
nodes = (
"17 245 LINE",
"157 245 LINE",
"157 455 LINE",
"17 455 LINE"
);
}
);
width = 735;
}
);
unicode = 0049;
},
{
glyphname = J;
lastChange = "2015-05-07 01:03:33 +0000";
layers = (
{
layerId = UUID0;
name = Regular;
paths = (
{
closed = 1;
nodes = (
"17 0 LINE",
"717 0 LINE",
"717 700 LINE",
"262 700 LINE",
"262 210 LINE",
"17 210 LINE"
);
},
{
closed = 1;
nodes = (
"17 245 LINE",
"227 245 LINE",
"227 700 LINE",
"17 700 LINE"
);
}
);
width = 735;
}
);
unicode = 004A;
},
{
glyphname = K;
lastChange = "2015-05-07 01:03:33 +0000";
layers = (
{
layerId = UUID0;
name = Regular;
paths = (
{
closed = 1;
nodes = (
"17 0 LINE",
"227 0 LINE",
"227 210 LINE",
"262 210 LINE",
"262 0 LINE",
"717 0 LINE",
"717 455 LINE",
"577 455 LINE",
"577 490 LINE",
"717 490 LINE",
"717 700 LINE",
"262 700 LINE",
"262 491 LINE",
"227 491 LINE",
"227 700 LINE",
"17 700 LINE"
);
}
);
width = 735;
}
);
unicode = 004B;
},
{
glyphname = L;
lastChange = "2015-05-07 01:03:33 +0000";
layers = (
{
layerId = UUID0;
name = Regular;
paths = (
{
closed = 1;
nodes = (
"17 0 LINE",
"717 0 LINE",
"717 210 LINE",
"472 210 LINE",
"472 700 LINE",
"17 700 LINE"
);
},
{
closed = 1;
nodes = (
"507 245 LINE",
"717 245 LINE",
"717 700 LINE",
"507 700 LINE"
);
}
);
width = 735;
}
);
unicode = 004C;
},
{
glyphname = M;
lastChange = "2015-05-07 01:03:33 +0000";
layers = (
{
layerId = UUID0;
name = Regular;
paths = (
{
closed = 1;
nodes = (
"17 0 LINE",
"227 0 LINE",
"227 490 LINE",
"262 490 LINE",
"262 0 LINE",
"472 0 LINE",
"472 490 LINE",
"507 490 LINE",
"507 0 LINE",
"717 0 LINE",
"717 700 LINE",
"17 700 LINE"
);
}
);
width = 735;
}
);
unicode = 004D;
},
{
glyphname = N;
lastChange = "2015-05-07 01:03:33 +0000";
layers = (
{
layerId = UUID0;
name = Regular;
paths = (
{
closed = 1;
nodes = (
"17 0 LINE",
"227 0 LINE",
"227 490 LINE",
"262 490 LINE",
"262 0 LINE",
"717 0 LINE",
"717 700 LINE",
"507 700 LINE",
"507 210 LINE",
"472 210 LINE",
"472 700 LINE",
"17 700 LINE"
);
}
);
width = 735;
}
);
unicode = 004E;
},
{
glyphname = O;
lastChange = "2015-05-07 01:03:33 +0000";
layers = (
{
layerId = UUID0;
name = Regular;
paths = (
{
closed = 1;
nodes = (
"17 0 LINE",
"717 0 LINE",
"717 700 LINE",
"17 700 LINE"
);
},
{
closed = 1;
nodes = (
"227 140 LINE",
"227 560 LINE",
"262 560 LINE",
"262 140 LINE"
);
}
);
width = 735;
}
);
unicode = 004F;
},
{
glyphname = OE;
lastChange = "2015-05-07 01:03:33 +0000";
layers = (
{
layerId = UUID0;
name = Regular;
paths = (
{
closed = 1;
nodes = (
"17 0 LINE",
"717 0 LINE",
"717 210 LINE",
"507 210 LINE",
"507 245 LINE",
"717 245 LINE",
"717 455 LINE",
"507 455 LINE",
"507 490 LINE",
"717 490 LINE",
"717 700 LINE",
"17 700 LINE"
);
},
{
closed = 1;
nodes = (
"227 140 LINE",
"227 560 LINE",
"262 560 LINE",
"262 140 LINE"
);
}
);
width = 735;
}
);
unicode = 0152;
},
{
glyphname = P;
lastChange = "2015-05-07 01:03:33 +0000";
layers = (
{
layerId = UUID0;
name = Regular;
paths = (
{
closed = 1;
nodes = (
"17 0 LINE",
"472 0 LINE",
"472 245 LINE",
"717 245 LINE",
"717 700 LINE",
"17 700 LINE"
);
},
{
closed = 1;
nodes = (
"472 350 LINE",
"472 560 LINE",
"507 560 LINE",
"507 350 LINE"
);
},
{
closed = 1;
nodes = (
"507 0 LINE",
"717 0 LINE",
"717 210 LINE",
"507 210 LINE"
);
}
);
width = 735;
}
);
unicode = 0050;
},
{
glyphname = Thorn;
lastChange = "2015-05-07 01:03:33 +0000";
layers = (
{
layerId = UUID0;
name = Regular;
paths = (
{
closed = 1;
nodes = (
"17 0 LINE",
"472 0 LINE",
"472 210 LINE",
"717 210 LINE",
"717 490 LINE",
"472 490 LINE",
"472 700 LINE",
"17 700 LINE"
);
},
{
closed = 1;
nodes = (
"472 280 LINE",
"472 420 LINE",
"507 420 LINE",
"507 280 LINE"
);
},
{
closed = 1;
nodes = (
"507 0 LINE",
"717 0 LINE",
"717 175 LINE",
"507 175 LINE"
);
},
{
closed = 1;
nodes = (
"507 525 LINE",
"717 525 LINE",
"717 700 LINE",
"507 700 LINE"
);
}
);
width = 735;
}
);
unicode = 00DE;
},
{
glyphname = Q;
lastChange = "2015-05-07 01:03:33 +0000";
layers = (
{
layerId = UUID0;
name = Regular;
paths = (
{
closed = 1;
nodes = (
"17 0 LINE",
"472 0 LINE",
"472 245 LINE",
"717 245 LINE",
"717 700 LINE",
"17 700 LINE"
);
},
{
closed = 1;
nodes = (
"227 140 LINE",
"227 560 LINE",
"262 560 LINE",
"262 140 LINE"
);
},
{
closed = 1;
nodes = (
"507 0 LINE",
"717 0 LINE",
"717 210 LINE",
"507 210 LINE"
);
}
);
width = 735;
}
);
unicode = 0051;
},
{
glyphname = R;
lastChange = "2015-05-07 01:03:33 +0000";
layers = (
{
layerId = UUID0;
name = Regular;
paths = (
{
closed = 1;
nodes = (
"17 0 LINE",
"227 0 LINE",
"227 490 LINE",
"262 490 LINE",
"262 0 LINE",
"717 0 LINE",
"717 210 LINE",
"507 210 LINE",
"507 245 LINE",
"717 245 LINE",
"717 700 LINE",
"17 700 LINE"
);
}
);
width = 735;
}
);
unicode = 0052;
},
{
glyphname = S;
lastChange = "2015-05-07 01:03:33 +0000";
layers = (
{
layerId = UUID0;
name = Regular;
paths = (
{
closed = 1;
nodes = (
"17 0 LINE",
"717 0 LINE",
"717 455 LINE",
"332 455 LINE",
"332 490 LINE",
"717 490 LINE",
"717 700 LINE",
"17 700 LINE",
"17 245 LINE",
"437 245 LINE",
"437 210 LINE",
"17 210 LINE"
);
}
);
width = 735;
}
);
unicode = 0053;
},
{
glyphname = T;
lastChange = "2015-05-07 01:03:33 +0000";
layers = (
{
layerId = UUID0;
name = Regular;
paths = (
{
closed = 1;
nodes = (
"262 0 LINE",
"472 0 LINE",
"472 490 LINE",
"717 490 LINE",
"717 700 LINE",
"17 700 LINE",
"17 490 LINE",
"262 490 LINE"
);
},
{
closed = 1;
nodes = (
"507 0 LINE",
"717 0 LINE",
"717 455 LINE",
"507 455 LINE"
);
},
{
closed = 1;
nodes = (
"17 0 LINE",
"227 0 LINE",
"227 455 LINE",
"17 455 LINE"
);
}
);
width = 735;
}
);
unicode = 0054;
},
{
glyphname = U;
lastChange = "2015-05-07 01:15:05 +0000";
layers = (
{
layerId = UUID0;
name = Regular;
paths = (
{
closed = 1;
nodes = (
"17 0 LINE",
"717 0 LINE",
"717 700 LINE",
"262 700 LINE",
"262 210 LINE",
"227 210 LINE",
"227 700 LINE",
"17 700 LINE"
);
}
);
width = 735;
}
);
unicode = 0055;
},
{
glyphname = V;
lastChange = "2015-05-07 01:03:33 +0000";
layers = (
{
layerId = UUID0;
name = Regular;
paths = (
{
closed = 1;
nodes = (
"17 0 LINE",
"717 0 LINE",
"717 700 LINE",
"385 700 LINE",
"385 210 LINE",
"350 210 LINE",
"350 700 LINE",
"17 700 LINE"
);
}
);
width = 735;
}
);
unicode = 0056;
},
{
glyphname = W;
lastChange = "2015-05-07 01:03:33 +0000";
layers = (
{
layerId = UUID0;
name = Regular;
paths = (
{
closed = 1;
nodes = (
"17 0 LINE",
"717 0 LINE",
"717 700 LINE",
"507 700 LINE",
"507 210 LINE",
"472 210 LINE",
"472 700 LINE",
"262 700 LINE",
"262 210 LINE",
"227 210 LINE",
"227 700 LINE",
"17 700 LINE"
);
}
);
width = 735;
}
);
unicode = 0057;
},
{
glyphname = X;
lastChange = "2015-05-07 01:03:33 +0000";
layers = (
{
layerId = UUID0;
name = Regular;
paths = (
{
closed = 1;
nodes = (
"17 0 LINE",
"350 0 LINE",
"350 210 LINE",
"385 210 LINE",
"385 0 LINE",
"717 0 LINE",
"717 455 LINE",
"506 455 LINE",
"506 490 LINE",
"717 490 LINE",
"717 700 LINE",
"385 700 LINE",
"385 491 LINE",
"350 491 LINE",
"350 700 LINE",
"17 700 LINE",
"17 490 LINE",
"227 490 LINE",
"227 455 LINE",
"17 455 LINE"
);
}
);
width = 735;
}
);
unicode = 0058;
},
{
glyphname = Y;
lastChange = "2015-05-07 01:03:33 +0000";
layers = (
{
layerId = UUID0;
name = Regular;
paths = (
{
closed = 1;
nodes = (
"262 0 LINE",
"472 0 LINE",
"472 245 LINE",
"717 245 LINE",
"717 700 LINE",
"385 700 LINE",
"385 491 LINE",
"350 491 LINE",
"350 700 LINE",
"17 700 LINE",
"17 245 LINE",
"262 245 LINE"
);
},
{
closed = 1;
nodes = (
"507 0 LINE",
"717 0 LINE",
"717 210 LINE",
"507 210 LINE"
);
},
{
closed = 1;
nodes = (
"17 0 LINE",
"227 0 LINE",
"227 210 LINE",
"17 210 LINE"
);
}
);
width = 735;
}
);
unicode = 0059;
},
{
glyphname = Z;
lastChange = "2015-05-07 01:03:33 +0000";
layers = (
{
layerId = UUID0;
name = Regular;
paths = (
{
closed = 1;
nodes = (
"17 0 LINE",
"717 0 LINE",
"717 210 LINE",
"297 210 LINE",
"297 245 LINE",
"717 245 LINE",
"717 700 LINE",
"17 700 LINE",
"17 490 LINE",
"437 490 LINE",
"437 455 LINE",
"17 455 LINE"
);
}
);
width = 735;
}
);
unicode = 005A;
},
{
glyphname = a;
lastChange = "2015-05-07 01:03:33 +0000";
layers = (
{
layerId = UUID0;
name = Regular;
paths = (
{
closed = 1;
nodes = (
"17 0 LINE",
"717 0 LINE",
"717 700 LINE",
"17 700 LINE",
"17 490 LINE",
"262 490 LINE",
"262 455 LINE",
"17 455 LINE"
);
},
{
closed = 1;
nodes = (
"227 140 LINE",
"227 350 LINE",
"262 350 LINE",
"262 140 LINE"
);
}
);
width = 735;
}
);
unicode = 0061;
},
{
glyphname = ae;
lastChange = "2015-05-07 01:03:33 +0000";
layers = (
{
layerId = UUID0;
name = Regular;
paths = (
{
closed = 1;
nodes = (
"227 140 LINE",
"227 350 LINE",
"262 350 LINE",
"262 140 LINE"
);
},
{
closed = 1;
nodes = (
"717 0 LINE",
"717 210 LINE",
"472 210 LINE",
"472 245 LINE",
"717 245 LINE",
"717 700 LINE",
"17 700 LINE",
"17 490 LINE",
"262 490 LINE",
"262 455 LINE",
"17 455 LINE",
"17 0 LINE"
);
},
{
closed = 1;
nodes = (
"472 350 LINE",
"472 560 LINE",
"507 560 LINE",
"507 350 LINE"
);
}
);
width = 735;
}
);
unicode = 00E6;
},
{
glyphname = c;
lastChange = "2015-05-07 01:03:33 +0000";
layers = (
{
layerId = UUID0;
name = Regular;
paths = (
{
closed = 1;
nodes = (
"17 0 LINE",
"717 0 LINE",
"717 455 LINE",
"507 455 LINE",
"507 490 LINE",
"717 490 LINE",
"717 700 LINE",
"17 700 LINE"
);
}
);
width = 735;
}
);
unicode = 0063;
},
{
glyphname = eth;
lastChange = "2015-05-07 01:03:33 +0000";
layers = (
{
layerId = UUID0;
name = Regular;
paths = (
{
closed = 1;
nodes = (
"17 385 LINE",
"157 385 LINE",
"157 350 LINE",
"17 350 LINE",
"17 0 LINE",
"682 0 LINE",
"682 140 LINE",
"717 140 LINE",
"717 560 LINE",
"682 560 LINE",
"682 700 LINE",
"17 700 LINE"
);
},
{
closed = 1;
nodes = (
"227 140 LINE",
"227 560 LINE",
"262 560 LINE",
"262 140 LINE"
);
}
);
width = 735;
}
);
unicode = 00F0;
},
{
glyphname = h;
lastChange = "2015-05-07 01:03:33 +0000";
layers = (
{
layerId = UUID0;
name = Regular;
paths = (
{
closed = 1;
nodes = (
"507 490 LINE",
"717 490 LINE",
"717 700 LINE",
"507 700 LINE"
);
},
{
closed = 1;
nodes = (
"17 0 LINE",
"472 0 LINE",
"472 315 LINE",
"507 315 LINE",
"507 0 LINE",
"717 0 LINE",
"717 455 LINE",
"472 455 LINE",
"472 700 LINE",
"17 700 LINE"
);
}
);
width = 735;
}
);
unicode = 0068;
},
{
glyphname = i;
lastChange = "2015-05-07 01:03:33 +0000";
layers = (
{
layerId = UUID0;
name = Regular;
paths = (
{
closed = 1;
nodes = (
"17 490 LINE",
"717 490 LINE",
"717 700 LINE",
"17 700 LINE"
);
},
{
closed = 1;
nodes = (
"17 0 LINE",
"717 0 LINE",
"717 455 LINE",
"17 455 LINE"
);
}
);
width = 736;
}
);
unicode = 0069;
},
{
glyphname = j;
lastChange = "2015-05-07 01:03:33 +0000";
layers = (
{
layerId = UUID0;
name = Regular;
paths = (
{
closed = 1;
nodes = (
"262 491 LINE",
"717 491 LINE",
"717 700 LINE",
"262 700 LINE"
);
},
{
closed = 1;
nodes = (
"17 245 LINE",
"227 245 LINE",
"227 700 LINE",
"17 700 LINE"
);
},
{
closed = 1;
nodes = (
"17 0 LINE",
"717 0 LINE",
"717 456 LINE",
"262 456 LINE",
"262 210 LINE",
"17 210 LINE"
);
}
);
width = 735;
}
);
unicode = 006A;
},
{
glyphname = k;
lastChange = "2015-05-07 01:03:33 +0000";
layers = (
{
layerId = UUID0;
name = Regular;
paths = (
{
closed = 1;
nodes = (
"17 0 LINE",
"297 0 LINE",
"297 280 LINE",
"332 280 LINE",
"332 0 LINE",
"717 0 LINE",
"717 455 LINE",
"507 455 LINE",
"507 490 LINE",
"717 490 LINE",
"717 700 LINE",
"332 700 LINE",
"332 560 LINE",
"297 560 LINE",
"297 700 LINE",
"17 700 LINE"
);
}
);
width = 735;
}
);
unicode = 006B;
},
{
glyphname = l;
lastChange = "2015-05-07 01:03:33 +0000";
layers = (
{
layerId = UUID0;
name = Regular;
paths = (
{
closed = 1;
nodes = (
"262 0 LINE",
"717 0 LINE",
"717 210 LINE",
"472 210 LINE",
"472 700 LINE",
"17 700 LINE",
"17 490 LINE",
"262 490 LINE"
);
},
{
closed = 1;
nodes = (
"507 245 LINE",
"717 245 LINE",
"717 700 LINE",
"507 700 LINE"
);
},
{
closed = 1;
nodes = (
"17 0 LINE",
"227 0 LINE",
"227 455 LINE",
"17 455 LINE"
);
}
);
width = 735;
}
);
unicode = 006C;
},
{
glyphname = m;
lastChange = "2015-05-07 01:03:33 +0000";
layers = (
{
layerId = UUID0;
name = Regular;
paths = (
{
closed = 1;
nodes = (
"17 0 LINE",
"227 0 LINE",
"227 490 LINE",
"262 490 LINE",
"262 0 LINE",
"472 0 LINE",
"472 490 LINE",
"507 490 LINE",
"507 0 LINE",
"717 0 LINE",
"717 700 LINE",
"262 700 LINE",
"262 630 LINE",
"227 630 LINE",
"227 700 LINE",
"17 700 LINE"
);
}
);
width = 735;
}
);
unicode = 006D;
},
{
glyphname = n;
lastChange = "2015-05-07 01:03:33 +0000";
layers = (
{
layerId = UUID0;
name = Regular;
paths = (
{
closed = 1;
nodes = (
"17 0 LINE",
"472 0 LINE",
"472 490 LINE",
"507 490 LINE",
"507 0 LINE",
"717 0 LINE",
"717 700 LINE",
"262 700 LINE",
"262 630 LINE",
"227 630 LINE",
"227 700 LINE",
"17 700 LINE"
);
}
);
width = 735;
}
);
unicode = 006E;
},
{
glyphname = o;
lastChange = "2015-05-07 01:03:33 +0000";
layers = (
{
layerId = UUID0;
name = Regular;
paths = (
{
closed = 1;
nodes = (
"17 0 LINE",
"717 0 LINE",
"717 700 LINE",
"17 700 LINE"
);
},
{
closed = 1;
nodes = (
"350 140 LINE",
"350 560 LINE",
"385 560 LINE",
"385 140 LINE"
);
}
);
width = 735;
}
);
unicode = 006F;
},
{
glyphname = oe;
lastChange = "2015-05-07 01:03:33 +0000";
layers = (
{
layerId = UUID0;
name = Regular;
paths = (
{
closed = 1;
nodes = (
"227 209 LINE",
"227 559 LINE",
"262 559 LINE",
"262 209 LINE"
);
},
{
closed = 1;
nodes = (
"717 0 LINE",
"717 210 LINE",
"472 210 LINE",
"472 245 LINE",
"717 245 LINE",
"717 700 LINE",
"17 700 LINE",
"17 0 LINE"
);
},
{
closed = 1;
nodes = (
"472 350 LINE",
"472 560 LINE",
"507 560 LINE",
"507 350 LINE"
);
}
);
width = 735;
}
);
unicode = 0153;
},
{
glyphname = thorn;
lastChange = "2015-05-07 01:03:33 +0000";
layers = (
{
layerId = UUID0;
name = Regular;
paths = (
{
closed = 1;
nodes = (
"17 0 LINE",
"472 0 LINE",
"472 245 LINE",
"717 245 LINE",
"717 455 LINE",
"472 455 LINE",
"472 700 LINE",
"17 700 LINE"
);
},
{
closed = 1;
nodes = (
"472 315 LINE",
"472 385 LINE",
"507 385 LINE",
"507 315 LINE"
);
},
{
closed = 1;
nodes = (
"507 0 LINE",
"717 0 LINE",
"717 210 LINE",
"507 210 LINE"
);
},
{
closed = 1;
nodes = (
"507 490 LINE",
"717 490 LINE",
"717 700 LINE",
"507 700 LINE"
);
}
);
width = 735;
}
);
unicode = 00FE;
},
{
glyphname = q;
lastChange = "2015-05-07 01:03:33 +0000";
layers = (
{
layerId = UUID0;
name = Regular;
paths = (
{
closed = 1;
nodes = (
"17 0 LINE",
"472 0 LINE",
"472 490 LINE",
"717 490 LINE",
"717 700 LINE",
"17 700 LINE"
);
},
{
closed = 1;
nodes = (
"227 210 LINE",
"227 560 LINE",
"262 560 LINE",
"262 210 LINE"
);
},
{
closed = 1;
nodes = (
"507 0 LINE",
"717 0 LINE",
"717 455 LINE",
"507 455 LINE"
);
}
);
width = 735;
}
);
unicode = 0071;
},
{
glyphname = r;
lastChange = "2015-05-07 01:03:33 +0000";
layers = (
{
layerId = UUID0;
name = Regular;
paths = (
{
closed = 1;
nodes = (
"17 0 LINE",
"472 0 LINE",
"472 245 LINE",
"507 245 LINE",
"507 0 LINE",
"717 0 LINE",
"717 210 LINE",
"577 210 LINE",
"577 245 LINE",
"717 245 LINE",
"717 700 LINE",
"17 700 LINE"
);
},
{
closed = 1;
nodes = (
"472 350 LINE",
"472 560 LINE",
"507 560 LINE",
"507 350 LINE"
);
}
);
width = 735;
}
);
unicode = 0072;
},
{
glyphname = s;
lastChange = "2015-05-07 01:03:33 +0000";
layers = (
{
layerId = UUID0;
name = Regular;
paths = (
{
closed = 1;
nodes = (
"17 0 LINE",
"717 0 LINE",
"717 455 LINE",
"227 455 LINE",
"227 490 LINE",
"717 490 LINE",
"717 700 LINE",
"17 700 LINE",
"17 245 LINE",
"506 245 LINE",
"506 210 LINE",
"17 210 LINE"
);
}
);
width = 735;
}
);
unicode = 0073;
},
{
glyphname = germandbls;
lastChange = "2015-05-07 01:03:33 +0000";
layers = (
{
layerId = UUID0;
name = Regular;
paths = (
{
closed = 1;
nodes = (
"17 280 LINE",
"437 280 LINE",
"437 560 LINE",
"192 560 LINE",
"192 595 LINE",
"437 595 LINE",
"437 700 LINE",
"17 700 LINE",
"17 420 LINE",
"262 420 LINE",
"262 385 LINE",
"17 385 LINE"
);
},
{
closed = 1;
nodes = (
"297 0 LINE",
"717 0 LINE",
"717 280 LINE",
"472 280 LINE",
"472 315 LINE",
"717 315 LINE",
"717 420 LINE",
"297 420 LINE",
"297 140 LINE",
"542 140 LINE",
"542 105 LINE",
"297 105 LINE"
);
},
{
closed = 1;
nodes = (
"17 0 LINE",
"262 0 LINE",
"262 245 LINE",
"17 245 LINE"
);
},
{
closed = 1;
nodes = (
"472 455 LINE",
"717 455 LINE",
"717 700 LINE",
"472 700 LINE"
);
}
);
width = 735;
}
);
unicode = 00DF;
},
{
glyphname = t;
lastChange = "2015-05-07 01:03:33 +0000";
layers = (
{
layerId = UUID0;
name = Regular;
paths = (
{
closed = 1;
nodes = (
"507 490 LINE",
"717 490 LINE",
"717 700 LINE",
"507 700 LINE"
);
},
{
closed = 1;
nodes = (
"17 245 LINE",
"262 245 LINE",
"262 0 LINE",
"472 0 LINE",
"472 245 LINE",
"717 245 LINE",
"717 455 LINE",
"472 455 LINE",
"472 700 LINE",
"262 700 LINE",
"262 455 LINE",
"17 455 LINE"
);
},
{
closed = 1;
nodes = (
"17 490 LINE",
"227 490 LINE",
"227 700 LINE",
"17 700 LINE"
);
},
{
closed = 1;
nodes = (
"507 0 LINE",
"717 0 LINE",
"717 210 LINE",
"507 210 LINE"
);
},
{
closed = 1;
nodes = (
"17 0 LINE",
"227 0 LINE",
"227 210 LINE",
"17 210 LINE"
);
}
);
width = 735;
}
);
unicode = 0074;
},
{
glyphname = u;
lastChange = "2015-05-07 01:03:33 +0000";
layers = (
{
layerId = UUID0;
name = Regular;
paths = (
{
closed = 1;
nodes = (
"17 0 LINE",
"717 0 LINE",
"717 700 LINE",
"262 700 LINE",
"262 211 LINE",
"227 211 LINE",
"227 700 LINE",
"17 700 LINE"
);
}
);
width = 735;
}
);
unicode = 0075;
},
{
glyphname = x;
lastChange = "2015-05-07 01:03:33 +0000";
layers = (
{
layerId = UUID0;
name = Regular;
paths = (
{
closed = 1;
nodes = (
"17 0 LINE",
"350 0 LINE",
"350 210 LINE",
"385 210 LINE",
"385 0 LINE",
"717 0 LINE",
"717 350 LINE",
"577 350 LINE",
"577 385 LINE",
"717 385 LINE",
"717 700 LINE",
"385 700 LINE",
"385 560 LINE",
"350 560 LINE",
"350 700 LINE",
"17 700 LINE",
"17 385 LINE",
"157 385 LINE",
"157 350 LINE",
"17 350 LINE"
);
}
);
width = 735;
}
);
unicode = 0078;
},
{
glyphname = y;
lastChange = "2015-05-07 01:03:33 +0000";
layers = (
{
layerId = UUID0;
name = Regular;
paths = (
{
closed = 1;
nodes = (
"17 0 LINE",
"717 0 LINE",
"717 700 LINE",
"262 700 LINE",
"262 350 LINE",
"227 350 LINE",
"227 700 LINE",
"17 700 LINE",
"17 245 LINE",
"262 245 LINE",
"262 210 LINE",
"17 210 LINE"
);
}
);
width = 735;
}
);
unicode = 0079;
},
{
glyphname = z;
lastChange = "2015-05-07 01:03:33 +0000";
layers = (
{
layerId = UUID0;
name = Regular;
paths = (
{
closed = 1;
nodes = (
"17 0 LINE",
"717 0 LINE",
"717 210 LINE",
"227 210 LINE",
"227 245 LINE",
"717 245 LINE",
"717 700 LINE",
"17 700 LINE",
"17 490 LINE",
"507 490 LINE",
"507 455 LINE",
"17 455 LINE"
);
}
);
width = 735;
}
);
unicode = 007A;
},
{
glyphname = zero;
lastChange = "2015-05-07 01:03:33 +0000";
layers = (
{
layerId = UUID0;
name = Regular;
paths = (
{
closed = 1;
nodes = (
"17 0 LINE",
"717 0 LINE",
"717 700 LINE",
"17 700 LINE"
);
},
{
closed = 1;
nodes = (
"350 210 LINE",
"350 490 LINE",
"385 490 LINE",
"385 210 LINE"
);
}
);
width = 735;
}
);
unicode = 0030;
},
{
glyphname = one;
lastChange = "2015-05-07 01:03:33 +0000";
layers = (
{
layerId = UUID0;
name = Regular;
paths = (
{
closed = 1;
nodes = (
"577 245 LINE",
"717 245 LINE",
"717 700 LINE",
"577 700 LINE"
);
},
{
closed = 1;
nodes = (
"17 0 LINE",
"717 0 LINE",
"717 210 LINE",
"542 210 LINE",
"542 700 LINE",
"17 700 LINE",
"17 490 LINE",
"192 490 LINE",
"192 210 LINE",
"17 210 LINE"
);
},
{
closed = 1;
nodes = (
"17 245 LINE",
"157 245 LINE",
"157 455 LINE",
"17 455 LINE"
);
}
);
width = 735;
}
);
unicode = 0031;
},
{
glyphname = two;
lastChange = "2015-05-07 01:03:33 +0000";
layers = (
{
layerId = UUID0;
name = Regular;
paths = (
{
closed = 1;
nodes = (
"17 0 LINE",
"717 0 LINE",
"717 210 LINE",
"227 210 LINE",
"227 245 LINE",
"717 245 LINE",
"717 700 LINE",
"17 700 LINE",
"17 490 LINE",
"297 490 LINE",
"297 455 LINE",
"17 455 LINE"
);
}
);
width = 735;
}
);
unicode = 0032;
},
{
glyphname = three;
lastChange = "2015-05-07 01:03:33 +0000";
layers = (
{
layerId = UUID0;
name = Regular;
paths = (
{
closed = 1;
nodes = (
"17 0 LINE",
"717 0 LINE",
"717 700 LINE",
"17 700 LINE",
"17 490 LINE",
"227 490 LINE",
"227 455 LINE",
"17 455 LINE",
"17 245 LINE",
"227 245 LINE",
"227 210 LINE",
"17 210 LINE"
);
}
);
width = 735;
}
);
unicode = 0033;
},
{
glyphname = five;
lastChange = "2015-05-07 01:03:33 +0000";
layers = (
{
layerId = UUID0;
name = Regular;
paths = (
{
closed = 1;
nodes = (
"17 0 LINE",
"717 0 LINE",
"717 455 LINE",
"227 455 LINE",
"227 490 LINE",
"717 490 LINE",
"717 700 LINE",
"17 700 LINE",
"17 245 LINE",
"297 245 LINE",
"297 210 LINE",
"17 210 LINE"
);
}
);
width = 735;
}
);
unicode = 0035;
},
{
glyphname = six;
lastChange = "2015-05-07 01:03:33 +0000";
layers = (
{
layerId = UUID0;
name = Regular;
paths = (
{
closed = 1;
nodes = (
"17 0 LINE",
"717 0 LINE",
"717 455 LINE",
"472 455 LINE",
"472 490 LINE",
"717 490 LINE",
"717 700 LINE",
"17 700 LINE"
);
},
{
closed = 1;
nodes = (
"472 140 LINE",
"472 350 LINE",
"507 350 LINE",
"507 140 LINE"
);
}
);
width = 735;
}
);
unicode = 0036;
},
{
glyphname = seven;
lastChange = "2015-05-07 01:03:33 +0000";
layers = (
{
layerId = UUID0;
name = Regular;
paths = (
{
closed = 1;
nodes = (
"262 0 LINE",
"717 0 LINE",
"717 700 LINE",
"17 700 LINE",
"17 490 LINE",
"262 490 LINE"
);
},
{
closed = 1;
nodes = (
"17 0 LINE",
"227 0 LINE",
"227 455 LINE",
"17 455 LINE"
);
}
);
width = 735;
}
);
unicode = 0037;
},
{
glyphname = eight;
lastChange = "2015-05-07 01:03:33 +0000";
layers = (
{
layerId = UUID0;
name = Regular;
paths = (
{
closed = 1;
nodes = (
"17 0 LINE",
"717 0 LINE",
"717 350 LINE",
"682 350 LINE",
"682 385 LINE",
"717 385 LINE",
"717 700 LINE",
"17 700 LINE",
"17 385 LINE",
"52 385 LINE",
"52 350 LINE",
"17 350 LINE"
);
},
{
closed = 1;
nodes = (
"227 420 LINE",
"227 560 LINE",
"262 560 LINE",
"262 420 LINE"
);
},
{
closed = 1;
nodes = (
"227 140 LINE",
"227 280 LINE",
"262 280 LINE",
"262 140 LINE"
);
}
);
width = 735;
}
);
unicode = 0038;
},
{
glyphname = nine;
lastChange = "2015-05-07 01:03:33 +0000";
layers = (
{
layerId = UUID0;
name = Regular;
paths = (
{
closed = 1;
nodes = (
"17 0 LINE",
"717 0 LINE",
"717 700 LINE",
"17 700 LINE",
"17 245 LINE",
"262 245 LINE",
"262 210 LINE",
"17 210 LINE"
);
},
{
closed = 1;
nodes = (
"227 350 LINE",
"227 560 LINE",
"262 560 LINE",
"262 350 LINE"
);
}
);
width = 735;
}
);
unicode = 0039;
},
{
glyphname = fraction;
lastChange = "2015-05-07 01:03:33 +0000";
layers = (
{
layerId = UUID0;
name = Regular;
paths = (
{
closed = 1;
nodes = (
"0 735 LINE",
"0 -35 LINE",
"735 -35 LINE",
"735 735 LINE"
);
},
{
closed = 1;
nodes = (
"52 524 OFFCURVE",
"193 665 OFFCURVE",
"367 665 CURVE SMOOTH",
"541 665 OFFCURVE",
"682 524 OFFCURVE",
"682 350 CURVE SMOOTH",
"682 176 OFFCURVE",
"541 35 OFFCURVE",
"367 35 CURVE SMOOTH",
"193 35 OFFCURVE",
"52 176 OFFCURVE",
"52 350 CURVE"
);
},
{
closed = 1;
nodes = (
"192 385 LINE",
"332 385 LINE",
"332 525 LINE",
"192 525 LINE"
);
},
{
closed = 1;
nodes = (
"402 385 LINE",
"542 385 LINE",
"542 525 LINE",
"402 525 LINE"
);
},
{
closed = 1;
nodes = (
"192 175 LINE",
"332 175 LINE",
"332 315 LINE",
"192 315 LINE"
);
},
{
closed = 1;
nodes = (
"402 175 LINE",
"542 175 LINE",
"542 315 LINE",
"402 315 LINE"
);
}
);
width = 735;
}
);
unicode = 2044;
},
{
glyphname = asterisk;
lastChange = "2015-05-07 01:03:33 +0000";
layers = (
{
layerId = UUID0;
name = Regular;
paths = (
{
closed = 1;
nodes = (
"262 245 LINE",
"472 245 LINE",
"472 455 LINE",
"262 455 LINE"
);
},
{
closed = 1;
nodes = (
"17 490 LINE",
"227 490 LINE",
"227 700 LINE",
"17 700 LINE"
);
},
{
closed = 1;
nodes = (
"507 0 LINE",
"717 0 LINE",
"717 210 LINE",
"507 210 LINE"
);
},
{
closed = 1;
nodes = (
"17 0 LINE",
"227 0 LINE",
"227 210 LINE",
"17 210 LINE"
);
},
{
closed = 1;
nodes = (
"507 490 LINE",
"717 490 LINE",
"717 700 LINE",
"507 700 LINE"
);
},
{
closed = 1;
nodes = (
"262 490 LINE",
"472 490 LINE",
"472 700 LINE",
"262 700 LINE"
);
},
{
closed = 1;
nodes = (
"17 245 LINE",
"227 245 LINE",
"227 455 LINE",
"17 455 LINE"
);
},
{
closed = 1;
nodes = (
"507 245 LINE",
"717 245 LINE",
"717 455 LINE",
"507 455 LINE"
);
},
{
closed = 1;
nodes = (
"262 0 LINE",
"472 0 LINE",
"472 210 LINE",
"262 210 LINE"
);
}
);
width = 735;
}
);
unicode = 002A;
},
{
glyphname = backslash;
lastChange = "2015-05-07 01:03:33 +0000";
layers = (
{
layerId = UUID0;
name = Regular;
paths = (
{
closed = 1;
nodes = (
"17 245 LINE",
"227 245 LINE",
"227 490 LINE",
"472 490 LINE",
"472 700 LINE",
"17 700 LINE"
);
},
{
closed = 1;
nodes = (
"262 0 LINE",
"717 0 LINE",
"717 455 LINE",
"507 455 LINE",
"507 210 LINE",
"262 210 LINE"
);
},
{
closed = 1;
nodes = (
"262 245 LINE",
"472 245 LINE",
"472 455 LINE",
"262 455 LINE"
);
},
{
closed = 1;
nodes = (
"507 490 LINE",
"717 490 LINE",
"717 700 LINE",
"507 700 LINE"
);
},
{
closed = 1;
nodes = (
"17 0 LINE",
"227 0 LINE",
"227 210 LINE",
"17 210 LINE"
);
}
);
width = 735;
}
);
unicode = 005C;
},
{
glyphname = periodcentered;
lastChange = "2015-05-07 01:03:33 +0000";
layers = (
{
layerId = UUID0;
name = Regular;
paths = (
{
closed = 1;
nodes = (
"717 700 LINE",
"17 700 LINE",
"17 0 LINE",
"717 0 LINE"
);
},
{
closed = 1;
nodes = (
"227 490 LINE",
"507 490 LINE",
"507 210 LINE",
"227 210 LINE"
);
},
{
closed = 1;
nodes = (
"262 245 LINE",
"472 245 LINE",
"472 455 LINE",
"262 455 LINE"
);
}
);
width = 735;
}
);
unicode = 00B7;
},
{
glyphname = bullet;
lastChange = "2015-05-07 01:03:33 +0000";
layers = (
{
layerId = UUID0;
name = Regular;
paths = (
{
closed = 1;
nodes = (
"717 700 LINE",
"17 700 LINE",
"17 0 LINE",
"717 0 LINE"
);
},
{
closed = 1;
nodes = (
"227 490 LINE",
"507 490 LINE",
"507 210 LINE",
"227 210 LINE"
);
},
{
closed = 1;
nodes = (
"262 245 LINE",
"472 245 LINE",
"472 455 LINE",
"262 455 LINE"
);
}
);
width = 735;
}
);
unicode = 2022;
},
{
glyphname = colon;
lastChange = "2015-05-07 01:03:33 +0000";
layers = (
{
layerId = UUID0;
name = Regular;
paths = (
{
closed = 1;
nodes = (
"262 700 LINE",
"262 455 LINE",
"17 455 LINE",
"17 245 LINE",
"262 245 LINE",
"262 0 LINE",
"717 0 LINE",
"717 700 LINE"
);
},
{
closed = 1;
nodes = (
"17 490 LINE",
"227 490 LINE",
"227 700 LINE",
"17 700 LINE"
);
},
{
closed = 1;
nodes = (
"17 0 LINE",
"227 0 LINE",
"227 210 LINE",
"17 210 LINE"
);
}
);
width = 735;
}
);
unicode = 003A;
},
{
glyphname = comma;
lastChange = "2015-05-07 01:03:33 +0000";
layers = (
{
layerId = UUID0;
name = Regular;
paths = (
{
closed = 1;
nodes = (
"262 0 LINE",
"717 0 LINE",
"717 700 LINE",
"17 700 LINE",
"17 245 LINE",
"262 245 LINE"
);
},
{
closed = 1;
nodes = (
"17 70 LINE",
"87 70 LINE",
"87 0 LINE",
"227 0 LINE",
"227 210 LINE",
"17 210 LINE"
);
},
{
closed = 1;
nodes = (
"17 0 LINE",
"52 0 LINE",
"52 35 LINE",
"17 35 LINE"
);
}
);
width = 735;
}
);
unicode = 002C;
},
{
glyphname = ellipsis;
lastChange = "2015-05-07 01:03:33 +0000";
layers = (
{
layerId = UUID0;
name = Regular;
paths = (
{
closed = 1;
nodes = (
"717 700 LINE",
"17 700 LINE",
"17 245 LINE",
"717 245 LINE"
);
},
{
closed = 1;
nodes = (
"17 0 LINE",
"227 0 LINE",
"227 210 LINE",
"17 210 LINE"
);
},
{
closed = 1;
nodes = (
"717 210 LINE",
"507 210 LINE",
"507 0 LINE",
"717 0 LINE"
);
},
{
closed = 1;
nodes = (
"472 210 LINE",
"262 210 LINE",
"262 0 LINE",
"472 0 LINE"
);
}
);
width = 735;
}
);
unicode = 2026;
},
{
glyphname = exclam;
lastChange = "2015-05-07 01:03:33 +0000";
layers = (
{
layerId = UUID0;
name = Regular;
paths = (
{
closed = 1;
nodes = (
"262 0 LINE",
"717 0 LINE",
"717 700 LINE",
"262 700 LINE"
);
},
{
closed = 1;
nodes = (
"52 245 LINE",
"192 245 LINE",
"192 315 LINE",
"227 315 LINE",
"227 700 LINE",
"17 700 LINE",
"17 315 LINE",
"52 315 LINE"
);
},
{
closed = 1;
nodes = (
"17 0 LINE",
"227 0 LINE",
"227 210 LINE",
"17 210 LINE"
);
}
);
width = 735;
}
);
unicode = 0021;
},
{
glyphname = numbersign;
lastChange = "2015-05-07 01:03:33 +0000";
layers = (
{
layerId = UUID0;
name = Regular;
paths = (
{
closed = 1;
nodes = (
"0 735 LINE",
"0 -35 LINE",
"735 -35 LINE",
"735 735 LINE"
);
},
{
closed = 1;
nodes = (
"52 524 OFFCURVE",
"193 665 OFFCURVE",
"367 665 CURVE SMOOTH",
"541 665 OFFCURVE",
"682 524 OFFCURVE",
"682 350 CURVE SMOOTH",
"682 176 OFFCURVE",
"541 35 OFFCURVE",
"367 35 CURVE SMOOTH",
"193 35 OFFCURVE",
"52 176 OFFCURVE",
"52 350 CURVE"
);
},
{
closed = 1;
nodes = (
"192 385 LINE",
"332 385 LINE",
"332 525 LINE",
"192 525 LINE"
);
},
{
closed = 1;
nodes = (
"402 385 LINE",
"542 385 LINE",
"542 525 LINE",
"402 525 LINE"
);
},
{
closed = 1;
nodes = (
"192 175 LINE",
"332 175 LINE",
"332 315 LINE",
"192 315 LINE"
);
},
{
closed = 1;
nodes = (
"402 175 LINE",
"542 175 LINE",
"542 315 LINE",
"402 315 LINE"
);
}
);
width = 735;
}
);
unicode = 0023;
},
{
glyphname = period;
lastChange = "2015-05-07 01:03:33 +0000";
layers = (
{
layerId = UUID0;
name = Regular;
paths = (
{
closed = 1;
nodes = (
"17 245 LINE",
"262 245 LINE",
"262 0 LINE",
"717 0 LINE",
"717 700 LINE",
"17 700 LINE"
);
},
{
closed = 1;
nodes = (
"17 0 LINE",
"227 0 LINE",
"227 210 LINE",
"17 210 LINE"
);
}
);
width = 735;
}
);
unicode = 002E;
},
{
glyphname = question;
lastChange = "2015-05-07 01:03:33 +0000";
layers = (
{
layerId = UUID0;
name = Regular;
paths = (
{
closed = 1;
nodes = (
"17 245 LINE",
"716 245 LINE",
"716 700 LINE",
"17 700 LINE",
"17 385 LINE",
"227 385 LINE",
"227 525 LINE",
"262 525 LINE",
"262 350 LINE",
"17 350 LINE"
);
},
{
closed = 1;
nodes = (
"17 0 LINE",
"716 0 LINE",
"716 210 LINE",
"17 210 LINE"
);
}
);
width = 734;
}
);
unicode = 003F;
},
{
glyphname = quotedbl;
lastChange = "2015-05-07 01:03:33 +0000";
layers = (
{
layerId = UUID0;
name = Regular;
paths = (
{
closed = 1;
nodes = (
"472 210 LINE",
"472 700 LINE",
"262 700 LINE",
"262 210 LINE",
"17 210 LINE",
"17 0 LINE",
"717 0 LINE",
"717 210 LINE"
);
},
{
closed = 1;
nodes = (
"17 245 LINE",
"227 245 LINE",
"227 700 LINE",
"17 700 LINE"
);
},
{
closed = 1;
nodes = (
"507 245 LINE",
"717 245 LINE",
"717 700 LINE",
"507 700 LINE"
);
}
);
width = 735;
}
);
unicode = 0022;
},
{
glyphname = quotesingle;
lastChange = "2015-05-07 01:03:33 +0000";
layers = (
{
layerId = UUID0;
name = Regular;
paths = (
{
closed = 1;
nodes = (
"717 700 LINE",
"507 700 LINE",
"507 210 LINE",
"227 210 LINE",
"227 700 LINE",
"17 700 LINE",
"17 0 LINE",
"717 0 LINE"
);
},
{
closed = 1;
nodes = (
"262 245 LINE",
"472 245 LINE",
"472 700 LINE",
"262 700 LINE"
);
}
);
width = 735;
}
);
unicode = 0027;
},
{
glyphname = semicolon;
lastChange = "2015-05-07 01:03:33 +0000";
layers = (
{
layerId = UUID0;
name = Regular;
paths = (
{
closed = 1;
nodes = (
"262 700 LINE",
"262 455 LINE",
"17 455 LINE",
"17 245 LINE",
"262 245 LINE",
"262 0 LINE",
"717 0 LINE",
"717 700 LINE"
);
},
{
closed = 1;
nodes = (
"17 490 LINE",
"227 490 LINE",
"227 700 LINE",
"17 700 LINE"
);
},
{
closed = 1;
nodes = (
"17 70 LINE",
"87 70 LINE",
"87 0 LINE",
"227 0 LINE",
"227 210 LINE",
"17 210 LINE"
);
},
{
closed = 1;
nodes = (
"17 0 LINE",
"52 0 LINE",
"52 35 LINE",
"17 35 LINE"
);
}
);
width = 735;
}
);
unicode = 003B;
},
{
glyphname = slash;
lastChange = "2015-05-07 01:03:33 +0000";
layers = (
{
layerId = UUID0;
name = Regular;
paths = (
{
closed = 1;
nodes = (
"717 245 LINE",
"507 245 LINE",
"507 490 LINE",
"262 490 LINE",
"262 700 LINE",
"717 700 LINE"
);
},
{
closed = 1;
nodes = (
"472 0 LINE",
"17 0 LINE",
"17 455 LINE",
"227 455 LINE",
"227 210 LINE",
"472 210 LINE"
);
},
{
closed = 1;
nodes = (
"472 245 LINE",
"262 245 LINE",
"262 455 LINE",
"472 455 LINE"
);
},
{
closed = 1;
nodes = (
"227 490 LINE",
"17 490 LINE",
"17 700 LINE",
"227 700 LINE"
);
},
{
closed = 1;
nodes = (
"717 0 LINE",
"507 0 LINE",
"507 210 LINE",
"717 210 LINE"
);
}
);
width = 735;
}
);
unicode = 002F;
},
{
glyphname = underscore;
lastChange = "2015-05-07 01:03:33 +0000";
layers = (
{
layerId = UUID0;
name = Regular;
paths = (
{
closed = 1;
nodes = (
"17 245 LINE",
"717 245 LINE",
"717 700 LINE",
"17 700 LINE"
);
},
{
closed = 1;
nodes = (
"17 0 LINE",
"717 0 LINE",
"717 210 LINE",
"17 210 LINE"
);
}
);
width = 735;
}
);
unicode = 005F;
},
{
glyphname = braceleft;
lastChange = "2015-05-07 01:03:33 +0000";
layers = (
{
layerId = UUID0;
name = Regular;
paths = (
{
closed = 1;
nodes = (
"507 245 LINE",
"717 245 LINE",
"717 455 LINE",
"507 455 LINE"
);
},
{
closed = 1;
nodes = (
"472 490 LINE",
"717 490 LINE",
"717 700 LINE",
"262 700 LINE",
"262 455 LINE",
"17 455 LINE",
"17 245 LINE",
"262 245 LINE",
"262 0 LINE",
"717 0 LINE",
"717 210 LINE",
"472 210 LINE"
);
},
{
closed = 1;
nodes = (
"17 490 LINE",
"227 490 LINE",
"227 700 LINE",
"17 700 LINE"
);
},
{
closed = 1;
nodes = (
"17 0 LINE",
"227 0 LINE",
"227 210 LINE",
"17 210 LINE"
);
}
);
width = 735;
}
);
unicode = 007B;
},
{
glyphname = bracketleft;
lastChange = "2015-05-07 01:03:33 +0000";
layers = (
{
layerId = UUID0;
name = Regular;
paths = (
{
closed = 1;
nodes = (
"262 245 LINE",
"717 245 LINE",
"717 455 LINE",
"262 455 LINE"
);
},
{
closed = 1;
nodes = (
"227 490 LINE",
"717 490 LINE",
"717 700 LINE",
"17 700 LINE",
"17 0 LINE",
"717 0 LINE",
"717 210 LINE",
"227 210 LINE"
);
}
);
width = 735;
}
);
unicode = 005B;
},
{
glyphname = parenleft;
lastChange = "2015-05-07 01:03:33 +0000";
layers = (
{
layerId = UUID0;
name = Regular;
paths = (
{
closed = 1;
nodes = (
"262 245 LINE",
"717 245 LINE",
"717 455 LINE",
"262 455 LINE"
);
},
{
closed = 1;
nodes = (
"227 490 LINE",
"717 490 LINE",
"717 700 LINE",
"17 700 LINE",
"17 0 LINE",
"717 0 LINE",
"717 210 LINE",
"227 210 LINE"
);
}
);
width = 735;
}
);
unicode = 0028;
},
{
glyphname = hyphen;
lastChange = "2015-05-07 01:03:33 +0000";
layers = (
{
layerId = UUID0;
name = Regular;
paths = (
{
closed = 1;
nodes = (
"17 455 LINE",
"17 245 LINE",
"717 245 LINE",
"717 455 LINE"
);
},
{
closed = 1;
nodes = (
"17 490 LINE",
"717 490 LINE",
"717 700 LINE",
"17 700 LINE"
);
},
{
closed = 1;
nodes = (
"17 0 LINE",
"717 0 LINE",
"717 210 LINE",
"17 210 LINE"
);
}
);
width = 735;
}
);
unicode = 002D;
},
{
glyphname = guillemotleft;
lastChange = "2015-05-07 01:03:33 +0000";
layers = (
{
layerId = UUID0;
name = Regular;
paths = (
{
closed = 1;
nodes = (
"507 245 LINE",
"717 245 LINE",
"717 455 LINE",
"507 455 LINE"
);
},
{
closed = 1;
nodes = (
"472 490 LINE",
"717 490 LINE",
"717 700 LINE",
"262 700 LINE",
"262 455 LINE",
"17 455 LINE",
"17 245 LINE",
"262 245 LINE",
"262 0 LINE",
"717 0 LINE",
"717 210 LINE",
"472 210 LINE"
);
},
{
closed = 1;
nodes = (
"17 490 LINE",
"227 490 LINE",
"227 700 LINE",
"17 700 LINE"
);
},
{
closed = 1;
nodes = (
"17 0 LINE",
"227 0 LINE",
"227 210 LINE",
"17 210 LINE"
);
}
);
width = 735;
}
);
unicode = 00AB;
},
{
glyphname = guilsinglleft;
lastChange = "2015-05-07 01:03:33 +0000";
layers = (
{
layerId = UUID0;
name = Regular;
paths = (
{
closed = 1;
nodes = (
"507 245 LINE",
"717 245 LINE",
"717 455 LINE",
"507 455 LINE"
);
},
{
closed = 1;
nodes = (
"472 490 LINE",
"717 490 LINE",
"717 700 LINE",
"262 700 LINE",
"262 455 LINE",
"17 455 LINE",
"17 245 LINE",
"262 245 LINE",
"262 0 LINE",
"717 0 LINE",
"717 210 LINE",
"472 210 LINE"
);
},
{
closed = 1;
nodes = (
"17 490 LINE",
"227 490 LINE",
"227 700 LINE",
"17 700 LINE"
);
},
{
closed = 1;
nodes = (
"17 0 LINE",
"227 0 LINE",
"227 210 LINE",
"17 210 LINE"
);
}
);
width = 735;
}
);
unicode = 2039;
},
{
glyphname = quotedblbase;
lastChange = "2015-05-07 01:03:33 +0000";
layers = (
{
layerId = UUID0;
name = Regular;
paths = (
{
closed = 1;
nodes = (
"17 700 LINE",
"17 245 LINE",
"507 245 LINE",
"507 0 LINE",
"717 0 LINE",
"717 700 LINE"
);
},
{
closed = 1;
nodes = (
"17 70 LINE",
"87 70 LINE",
"87 0 LINE",
"227 0 LINE",
"227 210 LINE",
"17 210 LINE"
);
},
{
closed = 1;
nodes = (
"262 70 LINE",
"332 70 LINE",
"332 0 LINE",
"472 0 LINE",
"472 210 LINE",
"262 210 LINE"
);
},
{
closed = 1;
nodes = (
"17 0 LINE",
"52 0 LINE",
"52 35 LINE",
"17 35 LINE"
);
},
{
closed = 1;
nodes = (
"262 0 LINE",
"297 0 LINE",
"297 35 LINE",
"262 35 LINE"
);
}
);
width = 735;
}
);
unicode = 201E;
},
{
glyphname = quotedblleft;
lastChange = "2015-05-07 01:03:33 +0000";
layers = (
{
layerId = UUID0;
name = Regular;
paths = (
{
closed = 1;
nodes = (
"717 0 LINE",
"717 455 LINE",
"227 455 LINE",
"227 700 LINE",
"17 700 LINE",
"17 0 LINE"
);
},
{
closed = 1;
nodes = (
"717 630 LINE",
"647 630 LINE",
"647 700 LINE",
"507 700 LINE",
"507 490 LINE",
"717 490 LINE"
);
},
{
closed = 1;
nodes = (
"472 630 LINE",
"402 630 LINE",
"402 700 LINE",
"262 700 LINE",
"262 490 LINE",
"472 490 LINE"
);
},
{
closed = 1;
nodes = (
"437 665 LINE",
"472 665 LINE",
"472 700 LINE",
"437 700 LINE"
);
},
{
closed = 1;
nodes = (
"682 665 LINE",
"717 665 LINE",
"717 700 LINE",
"682 700 LINE"
);
}
);
width = 735;
}
);
unicode = 201C;
},
{
glyphname = quotedblright;
lastChange = "2015-05-07 01:03:33 +0000";
layers = (
{
layerId = UUID0;
name = Regular;
paths = (
{
closed = 1;
nodes = (
"717 0 LINE",
"717 700 LINE",
"507 700 LINE",
"507 455 LINE",
"17 455 LINE",
"17 0 LINE"
);
},
{
closed = 1;
nodes = (
"17 560 LINE",
"87 560 LINE",
"87 490 LINE",
"227 490 LINE",
"227 700 LINE",
"17 700 LINE"
);
},
{
closed = 1;
nodes = (
"262 560 LINE",
"332 560 LINE",
"332 490 LINE",
"472 490 LINE",
"472 700 LINE",
"262 700 LINE"
);
},
{
closed = 1;
nodes = (
"17 490 LINE",
"52 490 LINE",
"52 525 LINE",
"17 525 LINE"
);
},
{
closed = 1;
nodes = (
"262 490 LINE",
"297 490 LINE",
"297 525 LINE",
"262 525 LINE"
);
}
);
width = 735;
}
);
unicode = 201D;
},
{
glyphname = quoteleft;
lastChange = "2015-05-07 01:03:33 +0000";
layers = (
{
layerId = UUID0;
name = Regular;
paths = (
{
closed = 1;
nodes = (
"717 0 LINE",
"717 455 LINE",
"472 455 LINE",
"472 700 LINE",
"17 700 LINE",
"17 0 LINE"
);
},
{
closed = 1;
nodes = (
"717 630 LINE",
"647 630 LINE",
"647 700 LINE",
"507 700 LINE",
"507 490 LINE",
"717 490 LINE"
);
},
{
closed = 1;
nodes = (
"682 665 LINE",
"717 665 LINE",
"717 700 LINE",
"682 700 LINE"
);
}
);
width = 735;
}
);
unicode = 2018;
},
{
glyphname = quoteright;
lastChange = "2015-05-07 01:03:33 +0000";
layers = (
{
layerId = UUID0;
name = Regular;
paths = (
{
closed = 1;
nodes = (
"717 0 LINE",
"717 700 LINE",
"262 700 LINE",
"262 455 LINE",
"17 455 LINE",
"17 0 LINE"
);
},
{
closed = 1;
nodes = (
"17 560 LINE",
"87 560 LINE",
"87 490 LINE",
"227 490 LINE",
"227 700 LINE",
"17 700 LINE"
);
},
{
closed = 1;
nodes = (
"17 490 LINE",
"52 490 LINE",
"52 525 LINE",
"17 525 LINE"
);
}
);
width = 735;
}
);
unicode = 2019;
},
{
glyphname = quotesinglbase;
lastChange = "2015-05-07 01:03:33 +0000";
layers = (
{
layerId = UUID0;
name = Regular;
paths = (
{
closed = 1;
nodes = (
"262 0 LINE",
"717 0 LINE",
"717 700 LINE",
"17 700 LINE",
"17 245 LINE",
"262 245 LINE"
);
},
{
closed = 1;
nodes = (
"17 70 LINE",
"87 70 LINE",
"87 0 LINE",
"227 0 LINE",
"227 210 LINE",
"17 210 LINE"
);
},
{
closed = 1;
nodes = (
"17 0 LINE",
"52 0 LINE",
"52 35 LINE",
"17 35 LINE"
);
}
);
width = 735;
}
);
unicode = 201A;
},
{
glyphname = space;
lastChange = "2015-05-07 01:03:33 +0000";
layers = (
{
layerId = UUID0;
name = Regular;
paths = (
{
closed = 1;
nodes = (
"17 0 LINE",
"717 0 LINE",
"717 700 LINE",
"17 700 LINE"
);
}
);
width = 735;
}
);
unicode = 0020;
},
{
glyphname = .notdef;
lastChange = "2015-05-07 01:03:33 +0000";
layers = (
{
layerId = UUID0;
name = Regular;
paths = (
{
closed = 1;
nodes = (
"0 735 LINE",
"0 -35 LINE",
"735 -35 LINE",
"735 735 LINE"
);
},
{
closed = 1;
nodes = (
"52 524 OFFCURVE",
"193 665 OFFCURVE",
"367 665 CURVE SMOOTH",
"541 665 OFFCURVE",
"682 524 OFFCURVE",
"682 350 CURVE SMOOTH",
"682 176 OFFCURVE",
"541 35 OFFCURVE",
"367 35 CURVE SMOOTH",
"193 35 OFFCURVE",
"52 176 OFFCURVE",
"52 350 CURVE"
);
},
{
closed = 1;
nodes = (
"192 385 LINE",
"332 385 LINE",
"332 525 LINE",
"192 525 LINE"
);
},
{
closed = 1;
nodes = (
"402 385 LINE",
"542 385 LINE",
"542 525 LINE",
"402 525 LINE"
);
},
{
closed = 1;
nodes = (
"192 175 LINE",
"332 175 LINE",
"332 315 LINE",
"192 315 LINE"
);
},
{
closed = 1;
nodes = (
"402 175 LINE",
"542 175 LINE",
"542 315 LINE",
"402 315 LINE"
);
}
);
width = 735;
}
);
},
{
glyphname = Euro;
lastChange = "2015-05-07 01:03:33 +0000";
layers = (
{
layerId = UUID0;
name = Regular;
paths = (
{
closed = 1;
nodes = (
"0 735 LINE",
"0 -35 LINE",
"735 -35 LINE",
"735 735 LINE"
);
},
{
closed = 1;
nodes = (
"52 524 OFFCURVE",
"193 665 OFFCURVE",
"367 665 CURVE SMOOTH",
"541 665 OFFCURVE",
"682 524 OFFCURVE",
"682 350 CURVE SMOOTH",
"682 176 OFFCURVE",
"541 35 OFFCURVE",
"367 35 CURVE SMOOTH",
"193 35 OFFCURVE",
"52 176 OFFCURVE",
"52 350 CURVE"
);
},
{
closed = 1;
nodes = (
"192 385 LINE",
"332 385 LINE",
"332 525 LINE",
"192 525 LINE"
);
},
{
closed = 1;
nodes = (
"402 385 LINE",
"542 385 LINE",
"542 525 LINE",
"402 525 LINE"
);
},
{
closed = 1;
nodes = (
"192 175 LINE",
"332 175 LINE",
"332 315 LINE",
"192 315 LINE"
);
},
{
closed = 1;
nodes = (
"402 175 LINE",
"542 175 LINE",
"542 315 LINE",
"402 315 LINE"
);
}
);
width = 735;
}
);
unicode = 20AC;
},
{
glyphname = cent;
lastChange = "2015-05-07 01:03:33 +0000";
layers = (
{
layerId = UUID0;
name = Regular;
paths = (
{
closed = 1;
nodes = (
"0 735 LINE",
"0 -35 LINE",
"735 -35 LINE",
"735 735 LINE"
);
},
{
closed = 1;
nodes = (
"52 524 OFFCURVE",
"193 665 OFFCURVE",
"367 665 CURVE SMOOTH",
"541 665 OFFCURVE",
"682 524 OFFCURVE",
"682 350 CURVE SMOOTH",
"682 176 OFFCURVE",
"541 35 OFFCURVE",
"367 35 CURVE SMOOTH",
"193 35 OFFCURVE",
"52 176 OFFCURVE",
"52 350 CURVE"
);
},
{
closed = 1;
nodes = (
"192 385 LINE",
"332 385 LINE",
"332 525 LINE",
"192 525 LINE"
);
},
{
closed = 1;
nodes = (
"402 385 LINE",
"542 385 LINE",
"542 525 LINE",
"402 525 LINE"
);
},
{
closed = 1;
nodes = (
"192 175 LINE",
"332 175 LINE",
"332 315 LINE",
"192 315 LINE"
);
},
{
closed = 1;
nodes = (
"402 175 LINE",
"542 175 LINE",
"542 315 LINE",
"402 315 LINE"
);
}
);
width = 735;
}
);
unicode = 00A2;
},
{
glyphname = dollar;
lastChange = "2015-05-07 01:03:33 +0000";
layers = (
{
layerId = UUID0;
name = Regular;
paths = (
{
closed = 1;
nodes = (
"0 735 LINE",
"0 -35 LINE",
"735 -35 LINE",
"735 735 LINE"
);
},
{
closed = 1;
nodes = (
"52 524 OFFCURVE",
"193 665 OFFCURVE",
"367 665 CURVE SMOOTH",
"541 665 OFFCURVE",
"682 524 OFFCURVE",
"682 350 CURVE SMOOTH",
"682 176 OFFCURVE",
"541 35 OFFCURVE",
"367 35 CURVE SMOOTH",
"193 35 OFFCURVE",
"52 176 OFFCURVE",
"52 350 CURVE"
);
},
{
closed = 1;
nodes = (
"192 385 LINE",
"332 385 LINE",
"332 525 LINE",
"192 525 LINE"
);
},
{
closed = 1;
nodes = (
"402 385 LINE",
"542 385 LINE",
"542 525 LINE",
"402 525 LINE"
);
},
{
closed = 1;
nodes = (
"192 175 LINE",
"332 175 LINE",
"332 315 LINE",
"192 315 LINE"
);
},
{
closed = 1;
nodes = (
"402 175 LINE",
"542 175 LINE",
"542 315 LINE",
"402 315 LINE"
);
}
);
width = 735;
}
);
unicode = 0024;
},
{
glyphname = florin;
lastChange = "2015-05-07 01:03:33 +0000";
layers = (
{
layerId = UUID0;
name = Regular;
paths = (
{
closed = 1;
nodes = (
"0 735 LINE",
"0 -35 LINE",
"735 -35 LINE",
"735 735 LINE"
);
},
{
closed = 1;
nodes = (
"52 524 OFFCURVE",
"193 665 OFFCURVE",
"367 665 CURVE SMOOTH",
"541 665 OFFCURVE",
"682 524 OFFCURVE",
"682 350 CURVE SMOOTH",
"682 176 OFFCURVE",
"541 35 OFFCURVE",
"367 35 CURVE SMOOTH",
"193 35 OFFCURVE",
"52 176 OFFCURVE",
"52 350 CURVE"
);
},
{
closed = 1;
nodes = (
"192 385 LINE",
"332 385 LINE",
"332 525 LINE",
"192 525 LINE"
);
},
{
closed = 1;
nodes = (
"402 385 LINE",
"542 385 LINE",
"542 525 LINE",
"402 525 LINE"
);
},
{
closed = 1;
nodes = (
"192 175 LINE",
"332 175 LINE",
"332 315 LINE",
"192 315 LINE"
);
},
{
closed = 1;
nodes = (
"402 175 LINE",
"542 175 LINE",
"542 315 LINE",
"402 315 LINE"
);
}
);
width = 735;
}
);
unicode = 0192;
},
{
glyphname = sterling;
lastChange = "2015-05-07 01:03:33 +0000";
layers = (
{
layerId = UUID0;
name = Regular;
paths = (
{
closed = 1;
nodes = (
"0 735 LINE",
"0 -35 LINE",
"735 -35 LINE",
"735 735 LINE"
);
},
{
closed = 1;
nodes = (
"52 524 OFFCURVE",
"193 665 OFFCURVE",
"367 665 CURVE SMOOTH",
"541 665 OFFCURVE",
"682 524 OFFCURVE",
"682 350 CURVE SMOOTH",
"682 176 OFFCURVE",
"541 35 OFFCURVE",
"367 35 CURVE SMOOTH",
"193 35 OFFCURVE",
"52 176 OFFCURVE",
"52 350 CURVE"
);
},
{
closed = 1;
nodes = (
"192 385 LINE",
"332 385 LINE",
"332 525 LINE",
"192 525 LINE"
);
},
{
closed = 1;
nodes = (
"402 385 LINE",
"542 385 LINE",
"542 525 LINE",
"402 525 LINE"
);
},
{
closed = 1;
nodes = (
"192 175 LINE",
"332 175 LINE",
"332 315 LINE",
"192 315 LINE"
);
},
{
closed = 1;
nodes = (
"402 175 LINE",
"542 175 LINE",
"542 315 LINE",
"402 315 LINE"
);
}
);
width = 735;
}
);
unicode = 00A3;
},
{
glyphname = yen;
lastChange = "2015-05-07 01:03:33 +0000";
layers = (
{
layerId = UUID0;
name = Regular;
paths = (
{
closed = 1;
nodes = (
"0 735 LINE",
"0 -35 LINE",
"735 -35 LINE",
"735 735 LINE"
);
},
{
closed = 1;
nodes = (
"52 524 OFFCURVE",
"193 665 OFFCURVE",
"367 665 CURVE SMOOTH",
"541 665 OFFCURVE",
"682 524 OFFCURVE",
"682 350 CURVE SMOOTH",
"682 176 OFFCURVE",
"541 35 OFFCURVE",
"367 35 CURVE SMOOTH",
"193 35 OFFCURVE",
"52 176 OFFCURVE",
"52 350 CURVE"
);
},
{
closed = 1;
nodes = (
"192 385 LINE",
"332 385 LINE",
"332 525 LINE",
"192 525 LINE"
);
},
{
closed = 1;
nodes = (
"402 385 LINE",
"542 385 LINE",
"542 525 LINE",
"402 525 LINE"
);
},
{
closed = 1;
nodes = (
"192 175 LINE",
"332 175 LINE",
"332 315 LINE",
"192 315 LINE"
);
},
{
closed = 1;
nodes = (
"402 175 LINE",
"542 175 LINE",
"542 315 LINE",
"402 315 LINE"
);
}
);
width = 735;
}
);
unicode = 00A5;
},
{
glyphname = asciitilde;
lastChange = "2015-05-07 01:03:33 +0000";
layers = (
{
layerId = UUID0;
name = Regular;
paths = (
{
closed = 1;
nodes = (
"0 735 LINE",
"0 -35 LINE",
"735 -35 LINE",
"735 735 LINE"
);
},
{
closed = 1;
nodes = (
"52 524 OFFCURVE",
"193 665 OFFCURVE",
"367 665 CURVE SMOOTH",
"541 665 OFFCURVE",
"682 524 OFFCURVE",
"682 350 CURVE SMOOTH",
"682 176 OFFCURVE",
"541 35 OFFCURVE",
"367 35 CURVE SMOOTH",
"193 35 OFFCURVE",
"52 176 OFFCURVE",
"52 350 CURVE"
);
},
{
closed = 1;
nodes = (
"192 385 LINE",
"332 385 LINE",
"332 525 LINE",
"192 525 LINE"
);
},
{
closed = 1;
nodes = (
"402 385 LINE",
"542 385 LINE",
"542 525 LINE",
"402 525 LINE"
);
},
{
closed = 1;
nodes = (
"192 175 LINE",
"332 175 LINE",
"332 315 LINE",
"192 315 LINE"
);
},
{
closed = 1;
nodes = (
"402 175 LINE",
"542 175 LINE",
"542 315 LINE",
"402 315 LINE"
);
}
);
width = 735;
}
);
unicode = 007E;
},
{
glyphname = divide;
lastChange = "2015-05-07 01:03:33 +0000";
layers = (
{
layerId = UUID0;
name = Regular;
paths = (
{
closed = 1;
nodes = (
"0 735 LINE",
"0 -35 LINE",
"735 -35 LINE",
"735 735 LINE"
);
},
{
closed = 1;
nodes = (
"52 524 OFFCURVE",
"193 665 OFFCURVE",
"367 665 CURVE SMOOTH",
"541 665 OFFCURVE",
"682 524 OFFCURVE",
"682 350 CURVE SMOOTH",
"682 176 OFFCURVE",
"541 35 OFFCURVE",
"367 35 CURVE SMOOTH",
"193 35 OFFCURVE",
"52 176 OFFCURVE",
"52 350 CURVE"
);
},
{
closed = 1;
nodes = (
"192 385 LINE",
"332 385 LINE",
"332 525 LINE",
"192 525 LINE"
);
},
{
closed = 1;
nodes = (
"402 385 LINE",
"542 385 LINE",
"542 525 LINE",
"402 525 LINE"
);
},
{
closed = 1;
nodes = (
"192 175 LINE",
"332 175 LINE",
"332 315 LINE",
"192 315 LINE"
);
},
{
closed = 1;
nodes = (
"402 175 LINE",
"542 175 LINE",
"542 315 LINE",
"402 315 LINE"
);
}
);
width = 735;
}
);
unicode = 00F7;
},
{
glyphname = equal;
lastChange = "2015-05-07 01:03:33 +0000";
layers = (
{
layerId = UUID0;
name = Regular;
paths = (
{
closed = 1;
nodes = (
"0 735 LINE",
"0 -35 LINE",
"735 -35 LINE",
"735 735 LINE"
);
},
{
closed = 1;
nodes = (
"52 524 OFFCURVE",
"193 665 OFFCURVE",
"367 665 CURVE SMOOTH",
"541 665 OFFCURVE",
"682 524 OFFCURVE",
"682 350 CURVE SMOOTH",
"682 176 OFFCURVE",
"541 35 OFFCURVE",
"367 35 CURVE SMOOTH",
"193 35 OFFCURVE",
"52 176 OFFCURVE",
"52 350 CURVE"
);
},
{
closed = 1;
nodes = (
"192 385 LINE",
"332 385 LINE",
"332 525 LINE",
"192 525 LINE"
);
},
{
closed = 1;
nodes = (
"402 385 LINE",
"542 385 LINE",
"542 525 LINE",
"402 525 LINE"
);
},
{
closed = 1;
nodes = (
"192 175 LINE",
"332 175 LINE",
"332 315 LINE",
"192 315 LINE"
);
},
{
closed = 1;
nodes = (
"402 175 LINE",
"542 175 LINE",
"542 315 LINE",
"402 315 LINE"
);
}
);
width = 735;
}
);
unicode = 003D;
},
{
glyphname = greater;
lastChange = "2015-05-07 01:03:33 +0000";
layers = (
{
layerId = UUID0;
name = Regular;
paths = (
{
closed = 1;
nodes = (
"0 735 LINE",
"0 -35 LINE",
"735 -35 LINE",
"735 735 LINE"
);
},
{
closed = 1;
nodes = (
"52 524 OFFCURVE",
"193 665 OFFCURVE",
"367 665 CURVE SMOOTH",
"541 665 OFFCURVE",
"682 524 OFFCURVE",
"682 350 CURVE SMOOTH",
"682 176 OFFCURVE",
"541 35 OFFCURVE",
"367 35 CURVE SMOOTH",
"193 35 OFFCURVE",
"52 176 OFFCURVE",
"52 350 CURVE"
);
},
{
closed = 1;
nodes = (
"192 385 LINE",
"332 385 LINE",
"332 525 LINE",
"192 525 LINE"
);
},
{
closed = 1;
nodes = (
"402 385 LINE",
"542 385 LINE",
"542 525 LINE",
"402 525 LINE"
);
},
{
closed = 1;
nodes = (
"192 175 LINE",
"332 175 LINE",
"332 315 LINE",
"192 315 LINE"
);
},
{
closed = 1;
nodes = (
"402 175 LINE",
"542 175 LINE",
"542 315 LINE",
"402 315 LINE"
);
}
);
width = 735;
}
);
unicode = 003E;
},
{
glyphname = less;
lastChange = "2015-05-07 01:03:33 +0000";
layers = (
{
layerId = UUID0;
name = Regular;
paths = (
{
closed = 1;
nodes = (
"0 735 LINE",
"0 -35 LINE",
"735 -35 LINE",
"735 735 LINE"
);
},
{
closed = 1;
nodes = (
"52 524 OFFCURVE",
"193 665 OFFCURVE",
"367 665 CURVE SMOOTH",
"541 665 OFFCURVE",
"682 524 OFFCURVE",
"682 350 CURVE SMOOTH",
"682 176 OFFCURVE",
"541 35 OFFCURVE",
"367 35 CURVE SMOOTH",
"193 35 OFFCURVE",
"52 176 OFFCURVE",
"52 350 CURVE"
);
},
{
closed = 1;
nodes = (
"192 385 LINE",
"332 385 LINE",
"332 525 LINE",
"192 525 LINE"
);
},
{
closed = 1;
nodes = (
"402 385 LINE",
"542 385 LINE",
"542 525 LINE",
"402 525 LINE"
);
},
{
closed = 1;
nodes = (
"192 175 LINE",
"332 175 LINE",
"332 315 LINE",
"192 315 LINE"
);
},
{
closed = 1;
nodes = (
"402 175 LINE",
"542 175 LINE",
"542 315 LINE",
"402 315 LINE"
);
}
);
width = 735;
}
);
unicode = 003C;
},
{
glyphname = minus;
lastChange = "2015-05-07 01:03:33 +0000";
layers = (
{
layerId = UUID0;
name = Regular;
paths = (
{
closed = 1;
nodes = (
"0 735 LINE",
"0 -35 LINE",
"735 -35 LINE",
"735 735 LINE"
);
},
{
closed = 1;
nodes = (
"52 524 OFFCURVE",
"193 665 OFFCURVE",
"367 665 CURVE SMOOTH",
"541 665 OFFCURVE",
"682 524 OFFCURVE",
"682 350 CURVE SMOOTH",
"682 176 OFFCURVE",
"541 35 OFFCURVE",
"367 35 CURVE SMOOTH",
"193 35 OFFCURVE",
"52 176 OFFCURVE",
"52 350 CURVE"
);
},
{
closed = 1;
nodes = (
"192 385 LINE",
"332 385 LINE",
"332 525 LINE",
"192 525 LINE"
);
},
{
closed = 1;
nodes = (
"402 385 LINE",
"542 385 LINE",
"542 525 LINE",
"402 525 LINE"
);
},
{
closed = 1;
nodes = (
"192 175 LINE",
"332 175 LINE",
"332 315 LINE",
"192 315 LINE"
);
},
{
closed = 1;
nodes = (
"402 175 LINE",
"542 175 LINE",
"542 315 LINE",
"402 315 LINE"
);
}
);
width = 735;
}
);
unicode = 2212;
},
{
glyphname = multiply;
lastChange = "2015-05-07 01:03:33 +0000";
layers = (
{
layerId = UUID0;
name = Regular;
paths = (
{
closed = 1;
nodes = (
"0 735 LINE",
"0 -35 LINE",
"735 -35 LINE",
"735 735 LINE"
);
},
{
closed = 1;
nodes = (
"52 524 OFFCURVE",
"193 665 OFFCURVE",
"367 665 CURVE SMOOTH",
"541 665 OFFCURVE",
"682 524 OFFCURVE",
"682 350 CURVE SMOOTH",
"682 176 OFFCURVE",
"541 35 OFFCURVE",
"367 35 CURVE SMOOTH",
"193 35 OFFCURVE",
"52 176 OFFCURVE",
"52 350 CURVE"
);
},
{
closed = 1;
nodes = (
"192 385 LINE",
"332 385 LINE",
"332 525 LINE",
"192 525 LINE"
);
},
{
closed = 1;
nodes = (
"402 385 LINE",
"542 385 LINE",
"542 525 LINE",
"402 525 LINE"
);
},
{
closed = 1;
nodes = (
"192 175 LINE",
"332 175 LINE",
"332 315 LINE",
"192 315 LINE"
);
},
{
closed = 1;
nodes = (
"402 175 LINE",
"542 175 LINE",
"542 315 LINE",
"402 315 LINE"
);
}
);
width = 735;
}
);
unicode = 00D7;
},
{
glyphname = percent;
lastChange = "2015-05-07 01:03:33 +0000";
layers = (
{
layerId = UUID0;
name = Regular;
paths = (
{
closed = 1;
nodes = (
"0 735 LINE",
"0 -35 LINE",
"735 -35 LINE",
"735 735 LINE"
);
},
{
closed = 1;
nodes = (
"52 524 OFFCURVE",
"193 665 OFFCURVE",
"367 665 CURVE SMOOTH",
"541 665 OFFCURVE",
"682 524 OFFCURVE",
"682 350 CURVE SMOOTH",
"682 176 OFFCURVE",
"541 35 OFFCURVE",
"367 35 CURVE SMOOTH",
"193 35 OFFCURVE",
"52 176 OFFCURVE",
"52 350 CURVE"
);
},
{
closed = 1;
nodes = (
"192 385 LINE",
"332 385 LINE",
"332 525 LINE",
"192 525 LINE"
);
},
{
closed = 1;
nodes = (
"402 385 LINE",
"542 385 LINE",
"542 525 LINE",
"402 525 LINE"
);
},
{
closed = 1;
nodes = (
"192 175 LINE",
"332 175 LINE",
"332 315 LINE",
"192 315 LINE"
);
},
{
closed = 1;
nodes = (
"402 175 LINE",
"542 175 LINE",
"542 315 LINE",
"402 315 LINE"
);
}
);
width = 735;
}
);
unicode = 0025;
},
{
glyphname = plus;
lastChange = "2015-05-07 01:03:33 +0000";
layers = (
{
layerId = UUID0;
name = Regular;
paths = (
{
closed = 1;
nodes = (
"0 735 LINE",
"0 -35 LINE",
"735 -35 LINE",
"735 735 LINE"
);
},
{
closed = 1;
nodes = (
"52 524 OFFCURVE",
"193 665 OFFCURVE",
"367 665 CURVE SMOOTH",
"541 665 OFFCURVE",
"682 524 OFFCURVE",
"682 350 CURVE SMOOTH",
"682 176 OFFCURVE",
"541 35 OFFCURVE",
"367 35 CURVE SMOOTH",
"193 35 OFFCURVE",
"52 176 OFFCURVE",
"52 350 CURVE"
);
},
{
closed = 1;
nodes = (
"192 385 LINE",
"332 385 LINE",
"332 525 LINE",
"192 525 LINE"
);
},
{
closed = 1;
nodes = (
"402 385 LINE",
"542 385 LINE",
"542 525 LINE",
"402 525 LINE"
);
},
{
closed = 1;
nodes = (
"192 175 LINE",
"332 175 LINE",
"332 315 LINE",
"192 315 LINE"
);
},
{
closed = 1;
nodes = (
"402 175 LINE",
"542 175 LINE",
"542 315 LINE",
"402 315 LINE"
);
}
);
width = 735;
}
);
unicode = 002B;
},
{
glyphname = plusminus;
lastChange = "2015-05-07 01:03:33 +0000";
layers = (
{
layerId = UUID0;
name = Regular;
paths = (
{
closed = 1;
nodes = (
"0 735 LINE",
"0 -35 LINE",
"735 -35 LINE",
"735 735 LINE"
);
},
{
closed = 1;
nodes = (
"52 524 OFFCURVE",
"193 665 OFFCURVE",
"367 665 CURVE SMOOTH",
"541 665 OFFCURVE",
"682 524 OFFCURVE",
"682 350 CURVE SMOOTH",
"682 176 OFFCURVE",
"541 35 OFFCURVE",
"367 35 CURVE SMOOTH",
"193 35 OFFCURVE",
"52 176 OFFCURVE",
"52 350 CURVE"
);
},
{
closed = 1;
nodes = (
"192 385 LINE",
"332 385 LINE",
"332 525 LINE",
"192 525 LINE"
);
},
{
closed = 1;
nodes = (
"402 385 LINE",
"542 385 LINE",
"542 525 LINE",
"402 525 LINE"
);
},
{
closed = 1;
nodes = (
"192 175 LINE",
"332 175 LINE",
"332 315 LINE",
"192 315 LINE"
);
},
{
closed = 1;
nodes = (
"402 175 LINE",
"542 175 LINE",
"542 315 LINE",
"402 315 LINE"
);
}
);
width = 735;
}
);
unicode = 00B1;
},
{
glyphname = bar;
lastChange = "2015-05-07 01:03:33 +0000";
layers = (
{
layerId = UUID0;
name = Regular;
paths = (
{
closed = 1;
nodes = (
"0 735 LINE",
"0 -35 LINE",
"735 -35 LINE",
"735 735 LINE"
);
},
{
closed = 1;
nodes = (
"52 524 OFFCURVE",
"193 665 OFFCURVE",
"367 665 CURVE SMOOTH",
"541 665 OFFCURVE",
"682 524 OFFCURVE",
"682 350 CURVE SMOOTH",
"682 176 OFFCURVE",
"541 35 OFFCURVE",
"367 35 CURVE SMOOTH",
"193 35 OFFCURVE",
"52 176 OFFCURVE",
"52 350 CURVE"
);
},
{
closed = 1;
nodes = (
"192 385 LINE",
"332 385 LINE",
"332 525 LINE",
"192 525 LINE"
);
},
{
closed = 1;
nodes = (
"402 385 LINE",
"542 385 LINE",
"542 525 LINE",
"402 525 LINE"
);
},
{
closed = 1;
nodes = (
"192 175 LINE",
"332 175 LINE",
"332 315 LINE",
"192 315 LINE"
);
},
{
closed = 1;
nodes = (
"402 175 LINE",
"542 175 LINE",
"542 315 LINE",
"402 315 LINE"
);
}
);
width = 735;
}
);
unicode = 007C;
},
{
glyphname = brokenbar;
lastChange = "2015-05-07 01:03:33 +0000";
layers = (
{
layerId = UUID0;
name = Regular;
paths = (
{
closed = 1;
nodes = (
"0 735 LINE",
"0 -35 LINE",
"735 -35 LINE",
"735 735 LINE"
);
},
{
closed = 1;
nodes = (
"52 524 OFFCURVE",
"193 665 OFFCURVE",
"367 665 CURVE SMOOTH",
"541 665 OFFCURVE",
"682 524 OFFCURVE",
"682 350 CURVE SMOOTH",
"682 176 OFFCURVE",
"541 35 OFFCURVE",
"367 35 CURVE SMOOTH",
"193 35 OFFCURVE",
"52 176 OFFCURVE",
"52 350 CURVE"
);
},
{
closed = 1;
nodes = (
"192 385 LINE",
"332 385 LINE",
"332 525 LINE",
"192 525 LINE"
);
},
{
closed = 1;
nodes = (
"402 385 LINE",
"542 385 LINE",
"542 525 LINE",
"402 525 LINE"
);
},
{
closed = 1;
nodes = (
"192 175 LINE",
"332 175 LINE",
"332 315 LINE",
"192 315 LINE"
);
},
{
closed = 1;
nodes = (
"402 175 LINE",
"542 175 LINE",
"542 315 LINE",
"402 315 LINE"
);
}
);
width = 735;
}
);
unicode = 00A6;
},
{
glyphname = at;
lastChange = "2015-05-07 01:03:33 +0000";
layers = (
{
layerId = UUID0;
name = Regular;
paths = (
{
closed = 1;
nodes = (
"717 70 LINE",
"717 700 LINE",
"17 700 LINE",
"17 0 LINE",
"717 0 LINE",
"717 35 LINE",
"52 35 LINE",
"52 665 LINE",
"682 665 LINE",
"682 105 LINE",
"647 105 LINE",
"647 630 LINE",
"87 630 LINE",
"87 490 LINE",
"262 490 LINE",
"262 455 LINE",
"87 455 LINE",
"87 70 LINE"
);
},
{
closed = 1;
nodes = (
"227 140 LINE",
"227 350 LINE",
"262 350 LINE",
"262 140 LINE"
);
}
);
width = 735;
}
);
unicode = 0040;
},
{
glyphname = ampersand;
lastChange = "2015-05-07 01:03:33 +0000";
layers = (
{
layerId = UUID0;
name = Regular;
paths = (
{
closed = 1;
nodes = (
"17 0 LINE",
"507 0 LINE",
"507 245 LINE",
"717 245 LINE",
"717 455 LINE",
"227 455 LINE",
"227 490 LINE",
"717 490 LINE",
"717 700 LINE",
"17 700 LINE"
);
},
{
closed = 1;
nodes = (
"542 0 LINE",
"717 0 LINE",
"717 210 LINE",
"542 210 LINE"
);
},
{
closed = 1;
nodes = (
"227 245 LINE",
"367 245 LINE",
"367 210 LINE",
"227 210 LINE"
);
}
);
width = 735;
}
);
unicode = 0026;
},
{
glyphname = paragraph;
lastChange = "2015-05-07 01:03:33 +0000";
layers = (
{
layerId = UUID0;
name = Regular;
paths = (
{
closed = 1;
nodes = (
"0 735 LINE",
"0 -35 LINE",
"735 -35 LINE",
"735 735 LINE"
);
},
{
closed = 1;
nodes = (
"52 524 OFFCURVE",
"193 665 OFFCURVE",
"367 665 CURVE SMOOTH",
"541 665 OFFCURVE",
"682 524 OFFCURVE",
"682 350 CURVE SMOOTH",
"682 176 OFFCURVE",
"541 35 OFFCURVE",
"367 35 CURVE SMOOTH",
"193 35 OFFCURVE",
"52 176 OFFCURVE",
"52 350 CURVE"
);
},
{
closed = 1;
nodes = (
"192 385 LINE",
"332 385 LINE",
"332 525 LINE",
"192 525 LINE"
);
},
{
closed = 1;
nodes = (
"402 385 LINE",
"542 385 LINE",
"542 525 LINE",
"402 525 LINE"
);
},
{
closed = 1;
nodes = (
"192 175 LINE",
"332 175 LINE",
"332 315 LINE",
"192 315 LINE"
);
},
{
closed = 1;
nodes = (
"402 175 LINE",
"542 175 LINE",
"542 315 LINE",
"402 315 LINE"
);
}
);
width = 735;
}
);
unicode = 00B6;
},
{
glyphname = copyright;
lastChange = "2015-05-07 01:03:33 +0000";
layers = (
{
layerId = UUID0;
name = Regular;
paths = (
{
closed = 1;
nodes = (
"0 735 LINE",
"0 -35 LINE",
"735 -35 LINE",
"735 735 LINE"
);
},
{
closed = 1;
nodes = (
"52 524 OFFCURVE",
"193 665 OFFCURVE",
"367 665 CURVE SMOOTH",
"541 665 OFFCURVE",
"682 524 OFFCURVE",
"682 350 CURVE SMOOTH",
"682 176 OFFCURVE",
"541 35 OFFCURVE",
"367 35 CURVE SMOOTH",
"193 35 OFFCURVE",
"52 176 OFFCURVE",
"52 350 CURVE"
);
},
{
closed = 1;
nodes = (
"192 385 LINE",
"332 385 LINE",
"332 525 LINE",
"192 525 LINE"
);
},
{
closed = 1;
nodes = (
"402 385 LINE",
"542 385 LINE",
"542 525 LINE",
"402 525 LINE"
);
},
{
closed = 1;
nodes = (
"192 175 LINE",
"332 175 LINE",
"332 315 LINE",
"192 315 LINE"
);
},
{
closed = 1;
nodes = (
"402 175 LINE",
"542 175 LINE",
"542 315 LINE",
"402 315 LINE"
);
}
);
width = 735;
}
);
unicode = 00A9;
},
{
glyphname = registered;
lastChange = "2015-05-07 01:03:33 +0000";
layers = (
{
layerId = UUID0;
name = Regular;
paths = (
{
closed = 1;
nodes = (
"0 735 LINE",
"0 -35 LINE",
"735 -35 LINE",
"735 735 LINE"
);
},
{
closed = 1;
nodes = (
"52 524 OFFCURVE",
"193 665 OFFCURVE",
"367 665 CURVE SMOOTH",
"541 665 OFFCURVE",
"682 524 OFFCURVE",
"682 350 CURVE SMOOTH",
"682 176 OFFCURVE",
"541 35 OFFCURVE",
"367 35 CURVE SMOOTH",
"193 35 OFFCURVE",
"52 176 OFFCURVE",
"52 350 CURVE"
);
},
{
closed = 1;
nodes = (
"192 385 LINE",
"332 385 LINE",
"332 525 LINE",
"192 525 LINE"
);
},
{
closed = 1;
nodes = (
"402 385 LINE",
"542 385 LINE",
"542 525 LINE",
"402 525 LINE"
);
},
{
closed = 1;
nodes = (
"192 175 LINE",
"332 175 LINE",
"332 315 LINE",
"192 315 LINE"
);
},
{
closed = 1;
nodes = (
"402 175 LINE",
"542 175 LINE",
"542 315 LINE",
"402 315 LINE"
);
}
);
width = 735;
}
);
unicode = 00AE;
},
{
glyphname = section;
lastChange = "2015-05-07 01:03:33 +0000";
layers = (
{
layerId = UUID0;
name = Regular;
paths = (
{
closed = 1;
nodes = (
"0 735 LINE",
"0 -35 LINE",
"735 -35 LINE",
"735 735 LINE"
);
},
{
closed = 1;
nodes = (
"52 524 OFFCURVE",
"193 665 OFFCURVE",
"367 665 CURVE SMOOTH",
"541 665 OFFCURVE",
"682 524 OFFCURVE",
"682 350 CURVE SMOOTH",
"682 176 OFFCURVE",
"541 35 OFFCURVE",
"367 35 CURVE SMOOTH",
"193 35 OFFCURVE",
"52 176 OFFCURVE",
"52 350 CURVE"
);
},
{
closed = 1;
nodes = (
"192 385 LINE",
"332 385 LINE",
"332 525 LINE",
"192 525 LINE"
);
},
{
closed = 1;
nodes = (
"402 385 LINE",
"542 385 LINE",
"542 525 LINE",
"402 525 LINE"
);
},
{
closed = 1;
nodes = (
"192 175 LINE",
"332 175 LINE",
"332 315 LINE",
"192 315 LINE"
);
},
{
closed = 1;
nodes = (
"402 175 LINE",
"542 175 LINE",
"542 315 LINE",
"402 315 LINE"
);
}
);
width = 735;
}
);
unicode = 00A7;
},
{
glyphname = trademark;
lastChange = "2015-05-07 01:03:33 +0000";
layers = (
{
layerId = UUID0;
name = Regular;
paths = (
{
closed = 1;
nodes = (
"0 735 LINE",
"0 -35 LINE",
"735 -35 LINE",
"735 735 LINE"
);
},
{
closed = 1;
nodes = (
"52 524 OFFCURVE",
"193 665 OFFCURVE",
"367 665 CURVE SMOOTH",
"541 665 OFFCURVE",
"682 524 OFFCURVE",
"682 350 CURVE SMOOTH",
"682 176 OFFCURVE",
"541 35 OFFCURVE",
"367 35 CURVE SMOOTH",
"193 35 OFFCURVE",
"52 176 OFFCURVE",
"52 350 CURVE"
);
},
{
closed = 1;
nodes = (
"192 385 LINE",
"332 385 LINE",
"332 525 LINE",
"192 525 LINE"
);
},
{
closed = 1;
nodes = (
"402 385 LINE",
"542 385 LINE",
"542 525 LINE",
"402 525 LINE"
);
},
{
closed = 1;
nodes = (
"192 175 LINE",
"332 175 LINE",
"332 315 LINE",
"192 315 LINE"
);
},
{
closed = 1;
nodes = (
"402 175 LINE",
"542 175 LINE",
"542 315 LINE",
"402 315 LINE"
);
}
);
width = 735;
}
);
unicode = 2122;
},
{
glyphname = degree;
lastChange = "2015-05-07 01:03:33 +0000";
layers = (
{
layerId = UUID0;
name = Regular;
paths = (
{
closed = 1;
nodes = (
"0 735 LINE",
"0 -35 LINE",
"735 -35 LINE",
"735 735 LINE"
);
},
{
closed = 1;
nodes = (
"52 524 OFFCURVE",
"193 665 OFFCURVE",
"367 665 CURVE SMOOTH",
"541 665 OFFCURVE",
"682 524 OFFCURVE",
"682 350 CURVE SMOOTH",
"682 176 OFFCURVE",
"541 35 OFFCURVE",
"367 35 CURVE SMOOTH",
"193 35 OFFCURVE",
"52 176 OFFCURVE",
"52 350 CURVE"
);
},
{
closed = 1;
nodes = (
"192 385 LINE",
"332 385 LINE",
"332 525 LINE",
"192 525 LINE"
);
},
{
closed = 1;
nodes = (
"402 385 LINE",
"542 385 LINE",
"542 525 LINE",
"402 525 LINE"
);
},
{
closed = 1;
nodes = (
"192 175 LINE",
"332 175 LINE",
"332 315 LINE",
"192 315 LINE"
);
},
{
closed = 1;
nodes = (
"402 175 LINE",
"542 175 LINE",
"542 315 LINE",
"402 315 LINE"
);
}
);
width = 735;
}
);
unicode = 00B0;
},
{
glyphname = asciicircum;
lastChange = "2015-05-07 01:03:33 +0000";
layers = (
{
layerId = UUID0;
name = Regular;
paths = (
{
closed = 1;
nodes = (
"0 735 LINE",
"0 -35 LINE",
"735 -35 LINE",
"735 735 LINE"
);
},
{
closed = 1;
nodes = (
"52 524 OFFCURVE",
"193 665 OFFCURVE",
"367 665 CURVE SMOOTH",
"541 665 OFFCURVE",
"682 524 OFFCURVE",
"682 350 CURVE SMOOTH",
"682 176 OFFCURVE",
"541 35 OFFCURVE",
"367 35 CURVE SMOOTH",
"193 35 OFFCURVE",
"52 176 OFFCURVE",
"52 350 CURVE"
);
},
{
closed = 1;
nodes = (
"192 385 LINE",
"332 385 LINE",
"332 525 LINE",
"192 525 LINE"
);
},
{
closed = 1;
nodes = (
"402 385 LINE",
"542 385 LINE",
"542 525 LINE",
"402 525 LINE"
);
},
{
closed = 1;
nodes = (
"192 175 LINE",
"332 175 LINE",
"332 315 LINE",
"192 315 LINE"
);
},
{
closed = 1;
nodes = (
"402 175 LINE",
"542 175 LINE",
"542 315 LINE",
"402 315 LINE"
);
}
);
width = 735;
}
);
unicode = 005E;
},
{
glyphname = dagger;
lastChange = "2015-05-07 01:03:33 +0000";
layers = (
{
layerId = UUID0;
name = Regular;
paths = (
{
closed = 1;
nodes = (
"0 735 LINE",
"0 -35 LINE",
"735 -35 LINE",
"735 735 LINE"
);
},
{
closed = 1;
nodes = (
"52 524 OFFCURVE",
"193 665 OFFCURVE",
"367 665 CURVE SMOOTH",
"541 665 OFFCURVE",
"682 524 OFFCURVE",
"682 350 CURVE SMOOTH",
"682 176 OFFCURVE",
"541 35 OFFCURVE",
"367 35 CURVE SMOOTH",
"193 35 OFFCURVE",
"52 176 OFFCURVE",
"52 350 CURVE"
);
},
{
closed = 1;
nodes = (
"192 385 LINE",
"332 385 LINE",
"332 525 LINE",
"192 525 LINE"
);
},
{
closed = 1;
nodes = (
"402 385 LINE",
"542 385 LINE",
"542 525 LINE",
"402 525 LINE"
);
},
{
closed = 1;
nodes = (
"192 175 LINE",
"332 175 LINE",
"332 315 LINE",
"192 315 LINE"
);
},
{
closed = 1;
nodes = (
"402 175 LINE",
"542 175 LINE",
"542 315 LINE",
"402 315 LINE"
);
}
);
width = 735;
}
);
unicode = 2020;
},
{
glyphname = daggerdbl;
lastChange = "2015-05-07 01:03:33 +0000";
layers = (
{
layerId = UUID0;
name = Regular;
paths = (
{
closed = 1;
nodes = (
"0 735 LINE",
"0 -35 LINE",
"735 -35 LINE",
"735 735 LINE"
);
},
{
closed = 1;
nodes = (
"52 524 OFFCURVE",
"193 665 OFFCURVE",
"367 665 CURVE SMOOTH",
"541 665 OFFCURVE",
"682 524 OFFCURVE",
"682 350 CURVE SMOOTH",
"682 176 OFFCURVE",
"541 35 OFFCURVE",
"367 35 CURVE SMOOTH",
"193 35 OFFCURVE",
"52 176 OFFCURVE",
"52 350 CURVE"
);
},
{
closed = 1;
nodes = (
"192 385 LINE",
"332 385 LINE",
"332 525 LINE",
"192 525 LINE"
);
},
{
closed = 1;
nodes = (
"402 385 LINE",
"542 385 LINE",
"542 525 LINE",
"402 525 LINE"
);
},
{
closed = 1;
nodes = (
"192 175 LINE",
"332 175 LINE",
"332 315 LINE",
"192 315 LINE"
);
},
{
closed = 1;
nodes = (
"402 175 LINE",
"542 175 LINE",
"542 315 LINE",
"402 315 LINE"
);
}
